<?xml version="1.0" encoding="utf-8"?><!DOCTYPE svg PUBLIC "-//W3C//DTD SVG 1.1//EN" "http://www.w3.org/Graphics/SVG/1.1/DTD/svg11.dtd"><svg width="120" height="57" viewBox="0 0 120 57" xmlns="http://www.w3.org/2000/svg" xmlns:xlink="http://www.w3.org/1999/xlink"><svg width="119.408" height="56.823" viewBox="0 0 119.408 56.823" id="logo" xmlns="http://www.w3.org/2000/svg"><g transform="matrix(.1 0 0 -.1 0 784)" fill="#FFF"><path d="M631.675 7830.88c-3.154-1.23-7.705-7.002-10.01-12.773-.615-1.387-1.309-2.539-1.689-2.539-.391 0-.693-.542-.693-1.157 0-.693-.469-1.382-.996-1.538-1.006-.464-4.551-7.08-10.166-19.243-1.924-4.233-4.395-9.312-5.391-11.392-1.074-2.002-1.914-4.155-1.914-4.771 0-1.001-5.244-12.852-7.012-15.781-.381-.61-.928-1.689-1.152-2.31-.225-.61-2.998-6.382-6.152-12.847-3.164-6.47-5.703-12.241-5.703-12.856 0-.688-.615-1.538-1.387-1.924s-1.924-2.231-2.461-4.082c-.537-1.846-1.455-3.843-2.002-4.463-.537-.61-1.309-2.69-1.846-4.614-1.533-5.771-11.318-26.016-16.543-34.248-1.396-2.158-2.695-5.156-3.008-6.621-.234-1.543-1.152-3.389-2.002-4.16-1.992-1.846-3.848-5.537-3.848-7.773 0-.996-.303-2.002-.762-2.236-.391-.225-.771-1.074-.771-1.846s-1.465-2.842-3.232-4.531c-2.852-2.852-3.623-3.232-6.699-3.232-6.318 0-19.238-3.311-25.479-6.621-1.924-.928-4.307-2.236-5.391-2.773-2.148-1.084-11.621-7.236-18.926-12.393-7.158-4.922-9.932-7.539-12.168-11.465-1.23-2.08-2.461-3.691-2.842-3.691-.928 0-3.311-2.236-4.238-4.004-.381-.771-2.305-3.008-4.229-5.01-4.16-4.307-11.465-13.848-11.465-14.932 0-.381-.313-.693-.625-.693-.693 0-4.766-5.928-4.766-6.924 0-.303-.537-.771-1.152-1.074-.625-.234-1.152-.771-1.152-1.24 0-.381-1.24-2.461-2.705-4.531-1.455-2.002-2.686-4.014-2.686-4.316s-1.23-2.305-2.773-4.463c-1.543-2.08-4.385-7.002-6.387-10.85-2.08-3.848-5.01-9.395-6.543-12.393-1.611-2.93-4.473-9.16-6.309-13.779-3.008-7.158-3.389-8.77-2.852-11.084.928-3.77 6.162-7.544 11.465-8.228 4.697-.625 12.549 1.606 17.783 5.151 1.768 1.152 3.545 2.158 3.848 2.158.381 0 2.314.996 4.229 2.236 1.924 1.221 4.238 2.461 5.078 2.686.928.303 3.701 1.924 6.24 3.613 2.461 1.621 4.766 3.008 5.078 3.008s1.006.537 1.465 1.152c1.23 1.689 5.85 2.93 5.85 1.611 0-.605-.537-1.455-1.152-1.992-.693-.547-2.236-3.154-3.389-5.703-4.854-10.459-5-10.771-8.613-14.312-1.465-1.543-4.551-6.387-6.777-10.781-2.236-4.453-4.775-8.77-5.625-9.609-1.309-1.387-3.076-4.551-8.691-15.391-1.084-2.09-2.852-5.234-3.848-6.934-1.074-1.699-2.314-3.926-2.852-5-.459-1.074-1.387-2.461-1.924-3.164-.615-.684-1.768-2.539-2.539-4.082-3.076-5.684-4.385-7.852-6.777-11.602-1.299-2.09-2.461-4.482-2.461-5.264 0-1.914-.996-3.535-4.16-7.07-1.533-1.621-2.764-3.535-2.764-4.238 0-.605-.996-3.223-2.314-5.762-1.221-2.539-2.305-4.941-2.305-5.234 0-.391-.537-1.172-1.152-1.855-.693-.605-1.465-2.227-1.699-3.457-.225-1.23-.918-2.461-1.465-2.695-.605-.234-1.074-.938-1.074-1.465 0-.625-.918-2.93-2.07-5.156-4.16-7.93-4.238-8.242-2.236-8.242.996 0 3.232 1.152 5.078 2.539 1.846 1.309 3.848 2.852 4.541 3.242 5.928 3.77 7.852 5.234 10.693 8.145 1.777 1.855 4.629 6.016 6.24 9.16 1.533 3.164 4.922 9.629 7.383 14.238 2.471 4.707 5.4 10.239 6.543 12.334 1.084 2.148 2.93 5.313 4.004 7.012 1.152 1.758 2.617 4.375 3.311 5.762 1.768 3.77 3.613 7.168 4.16 7.617.615.469 2.002 3.008 5.303 9.238 1.396 2.773 3.086 5.547 3.701 6.23.615.625 1.074 1.543 1.074 1.934 0 .371 1.387 2.695 3.086 5.234 1.689 2.461 3.076 4.844 3.076 5.234s1.152 2.305 2.461 4.297c2.93 4.16 9.854 15.488 9.854 16.016 0 .156 1.23 2.085 2.695 4.233 1.465 2.158 2.686 4.316 2.686 4.697s.85 1.846 1.934 3.232c1.074 1.387 1.924 2.92 1.924 3.311 0 .459.537 1.23 1.152 1.768 1.309 1.074 3.457 5.156 3.457 6.621 0 .537.771 1.924 1.777 3.154.918 1.152 2.08 2.852 2.617 3.691 7.305 12.168 7.773 12.773 13.623 16.855 9.307 6.621 14.316 10.703 14.316 11.699 0 .625.615 1.084 1.377 1.084.771 0 2.236.918 3.311 2.002 1.006 1.074 3.008 2.686 4.395 3.535 1.455.928 3.535 2.461 4.688 3.535l2.012 1.855.225-1.924c.156-1.074-.156-2.695-.547-3.545-.449-.84-.84-2.08-.84-2.764 0-.693-.693-2.695-1.465-4.473-.84-1.768-2.07-5.615-2.842-8.613-.693-2.93-1.777-6.396-2.314-7.695-.537-1.24-1.689-5.078-2.617-8.389-.928-3.389-1.768-6.396-1.992-6.777-.234-.391-.771-2.93-1.162-5.771-.381-2.773-1.387-7.852-2.227-11.318-.85-3.389-1.621-8.311-1.768-10.845-.156-2.539-.547-5.156-.771-5.781-.85-2.148-1.318-16.855-.547-17.305.469-.313.615-.781.391-1.152-.771-1.328 1.924-10.781 4.541-16.094 1.543-3.008 3.926-6.309 5.547-7.617 3.691-3.008 10.615-5.547 15.381-5.547 4.316 0 12.852 1.992 13.242 3.086.156.449.693.762 1.074.762 1.318 0 12.939 7.539 17.012 11.094 8.389 7.227 17.471 16.992 17.471 18.848 0 .469.547.84 1.152.84.693 0 1.543.859 1.934 1.934.381 1.074 1.074 1.914 1.455 1.914.391 0 .85.625 1.162 1.387.459 1.543 1.914 3.848 3.379 5.391.469.547.928 1.309.928 1.621 0 .391.84 1.543 1.924 2.695 1.074 1.152 1.924 2.91 1.924 4.004 0 .996.693 2.456 1.533 3.149.85.771 1.543 1.924 1.543 2.695s.537 1.387 1.162 1.387c.605 0 1.152.303 1.152.762 0 .391.918 1.621 2.158 2.695 1.768 1.699 2.07 2.539 2.07 6.162 0 3.613.234 4.238 1.387 4.238.85 0 1.621.684 1.846 1.533s.693 1.533 1.074 1.533c.391 0 .693.771.693 1.777 0 .918.615 2.08 1.387 2.539.771.537 1.846 2.383 2.471 4.16.527 1.768 1.768 3.848 2.617 4.619 4.385 3.926 7.148 5.996 8.613 6.465 2.383.762 21.709 20.771 22.324 23.086.615 2.686 1.455 2.539 2.695-.459.537-1.387 2.227-3.545 3.691-4.854 3.232-2.852 9.15-5.313 10.391-4.307.459.381 3.608 1.299 7.007 2.002 7.383 1.465 14.238 4.463 14.238 6.074 0 .693.527 1.24 1.152 1.24.605 0 1.777.605 2.539 1.377 2.305 2.236 5.547 4.082 6.387 3.623.547-.391.469-.85-.078-1.543-.996-1.23.078-4.307 2.695-7.773 2.227-2.93 9.551-5.078 12.012-3.545.762.547 2.773.928 4.297.928 4.082.078 11.621 4.004 16.172 8.467l1.621 1.621 3.218-2.08c3.926-2.617 7.246-2.617 14.785 0 4.297 1.533 5.391 1.689 5.684.84.234-.615 1.621-1.992 3.164-3.154 2.383-1.846 3.086-1.924 6.934-1.455 4.141.537 4.219.605 5.762 4.072.859 2.002 2.012 4.697 2.617 6.084.625 1.309 1.074 2.695 1.074 3.076 0 .313 1.016 3.232 2.246 6.387 1.152 3.164 2.617 7.158 3.145 8.779.547 1.611 1.855 3.77 3.008 4.766 4.531 4.004 19.082 8.164 32.793 9.395 4.219.391 7.773.537 7.93.459.137-.068-1.465-1.846-3.555-3.926-4.219-4.082-10.313-14.082-13.457-21.934-1.465-3.77-2.168-7.158-2.539-13.086-.547-7.852-.469-8.154 1.836-13.008 1.309-2.764 3.398-5.693 4.766-6.689 2.637-1.924 9.395-3.164 10.938-1.924.547.381 2.773 1.23 4.844 1.768 3.789 1.074 8.086 3.154 10.391 5.156.625.537 3.77 3.076 6.934 5.693s6.699 5.693 7.773 6.777c1.074 1.074 3.848 3.311 6.23 5 2.305 1.621 5.703 4.697 7.383 6.924 4.16 5.156 8.477 9.316 9.082 8.701.234-.234 0-1.777-.527-3.389-.625-1.621-1.074-3.232-1.074-3.691-.078-.391-.313-2.002-.625-3.467-.918-4.541 1.23-12.617 4.004-15.313 2.93-2.852 7.09-4.082 11.25-3.232 7.148 1.455 25.469 12.383 40.391 24.004 2.168 1.699 2.93 1.777 5.703.771 1.777-.693 1.855-.996 1.465-4.844-.469-4.844 1.465-12.471 3.926-15.088 5.391-6.006 15.156-6.23 26.172-.537 6.602 3.467 10.469 6.309 11.309 8.545.313.996 1.309 2.158 2.148 2.539 1.309.693 2.09.303 5.156-2.314 2.012-1.689 4.16-3.838 4.844-4.688 1.387-1.689 4.785-2.539 14.316-3.848 9.863-1.387 20.41.918 34.883 7.539 2.227.996 4.531 1.846 5.156 1.846.605 0 1.152.391 1.152.771 0 .469.313.771.684.771.996 0 11.172 6.23 11.465 7.002.156.391.703.693 1.23.693.547 0 3.164 2.002 5.859 4.463 2.695 2.383 5.918 5.234 7.227 6.309 1.309 1.006 4.316 4.004 6.621 6.543 16.465 18.252 14.629 15.859 20.625 27.402 1.777 3.545 3.77 7.93 4.395 9.932.605 1.924 1.621 5 2.383 6.924 1.465 4.16 1.934 15.391.547 17.012-.469.615-.996 1.924-1.152 2.998-.313 2.236-.625 2.236 19.922.85 7.246-.459 14.082-.537 16.543-.156 2.246.391 5.156.537 6.406.313 1.289-.156 5.918.225 10.371.918 4.473.693 9.16 1.465 10.391 1.699 1.309.146 2.852.537 3.477.771 1.387.449-5.234 2.686-13.086 4.307-3.164.693-8.164 1.768-11.152 2.461-2.93.615-8.008 1.465-11.172 1.924a243.216 243.216 0 0 0-9.844 1.465c-2.324.459-7.168.996-10.938 1.23s-7.773.771-8.848 1.152c-1.152.459-5.234.771-9.082.771-3.926 0-10.859.537-15.547 1.23-4.629.615-10.156 1.309-12.324 1.465-2.07.156-6.465.85-9.609 1.465-3.164.684-8.164 1.23-11.016 1.23-2.91 0-6.465.537-8.008 1.152-1.602.693-7.461 1.689-13.066 2.305-5.625.547-10.547 1.24-11.016 1.543-.391.225-4.316.996-8.613 1.611-7.93 1.152-15.781 2.617-23.711 4.541-2.305.547-7.168 1.621-10.781 2.314s-7.695 1.611-9.082 2.002c-2.227.762-2.832.615-4.453-.928-2.461-2.305-2.539-7.998-.156-12.773 1.777-3.545 1.914-3.613 13.32-8.77 5.605-2.461 11.465-3.545 35.859-6.621 3.086-.391 3.613-.693 4.395-2.852 1.074-2.852 4.063-4.844 8.379-5.537 2.539-.391 3.613-.156 5.469 1.221 1.23.928 2.695 2.539 3.164 3.623.449 1.006 1.152 1.699 1.445 1.465.625-.381 13.945-1.309 34.805-2.393 4.004-.225 8.535-.605 10-.84 3.066-.459 10.781-4.16 10.781-5.156 0-.381.684-1.621 1.602-2.695 1.23-1.621 1.465-2.695 1.074-5.547-.605-4.307-2.754-10.693-4.453-13.311-.703-1.152-1.309-2.305-1.309-2.617s-1.23-2.305-2.773-4.463c-1.465-2.08-4.238-6.23-6.152-9.16-3.32-5-19.316-21.553-24.941-25.781-1.465-1.084-3.008-2.383-3.457-2.93-1.016-1.152-8.926-5.537-18.867-10.313-13.086-6.387-25.469-8.008-32.012-4.15-4.785 2.764-5.469 5.85-3.086 12.852 2.539 7.158 4.844 10.771 11.387 17.695 6.309 6.621 17.168 14.014 23.262 15.781 2.148.615 5 1.768 6.309 2.617 1.387.85 3.848 1.465 5.625 1.465 3.066 0 3.145-.078 3.145-2.461.078-1.387.527-3.389 1.152-4.463.625-1.084 1.074-2.617 1.152-3.545 0-1.152.762-1.846 2.852-2.461 2.461-.771 3.145-.615 6.152 1.152 3.848 2.236 4.863 4.16 4.863 9.385 0 3.467-.859 6.006-3.477 10.859-1.602 3.076-7.773 6.074-12.305 6.152-5.469 0-15.703-2.461-22.324-5.459-9.941-4.385-12.637-5.693-15.625-7.695-1.855-1.24-3.613-2.236-3.926-2.236s-2.324-1.621-4.473-3.691c-2.07-2.002-4.453-4.16-5.234-4.775-1.309-1.074-1.387-1.074-.527.537.527.928.918 1.855.918 2.08 0 .928-5.078 6.074-6.543 6.621-2.773 1.074-8.77-.547-12.695-3.467-1.992-1.465-4.004-2.695-4.395-2.695-.918 0-3.926-2.305-6.309-4.766-2.305-2.461-3.145-2.695-3.145-.771 0 1.846-7.012 10.469-8.789 10.771-2.988.615-17.852-7.158-21.309-11.074-.703-.85-2.461-3.701-3.848-6.475-2.168-4.072-2.617-5.918-2.695-10-.078-5.313-.781-8.467-1.855-8.467-.313 0-2.617-1.387-5.078-3.086-15.156-10.381-26.406-17.314-27.012-16.621-.313.313-.078.928.391 1.387.527.537.918 1.689.918 2.617 0 .996.391 2.002.762 2.236.469.225.781.918.781 1.533 0 1.777 6.23 12.09 10.469 17.314 5.313 6.543 14.551 15.322 18.77 17.705 4.766 2.695 10.02 7.617 10.02 9.395 0 1.611-2.617 5.771-4.629 7.305-3.164 2.539-9.316.234-19.785-7.617-5.527-4.082-15.996-15.088-19.16-20.244-1.23-1.914-3.008-4.453-4.004-5.615-.996-1.152-2.461-3.311-3.379-4.844-.859-1.543-3.008-3.623-4.785-4.619-1.68-1.006-3.828-2.393-4.609-3.164-1.465-1.299-2.773-1.846-2.773-.996 0 .156 1.23 2.236 2.695 4.541s4.238 7.461 6.152 11.387c1.855 4.004 4.316 8.623 5.469 10.234 1.699 2.471 2.09 4.014 2.09 7.393.078 4.775-2.617 11.475-4.551 11.475-.605 0-2.012.537-3.066 1.23-2.09 1.387-8.867 1.152-11.563-.381-3.926-2.168-12.93-6.24-13.848-6.24-.605 0-1.465-.85-1.855-1.846-.371-1.006-1.523-2.002-2.695-2.314-1.992-.537-8.457-6.455-9.922-9.238-1.309-2.305-2.773-2.383-2.773-.225 0 3.008-3.848 5.693-8.613 6.24-9.395 1.074-19.785 1.074-22.695.078-1.621-.625-3.867-1.084-5.02-1.162-1.914 0-2.148.234-2.148 2.617 0 2.236-.625 3.154-3.613 5.771-3.848 3.311-4.395 3.311-9.082 1.162-3.691-1.777-12.695-17.168-12.695-21.709 0-.547-.469-1.465-.938-2.002-3.379-3.389-7.617-9.697-10.469-15.469-1.074-2.236-2.461-3.545-5.234-4.932-2.07-1.074-4.219-2.227-4.844-2.686-.527-.469-1.387-.85-1.914-.928-.469-.078-1.465-.391-2.246-.693-1.309-.537-1.23-.381.156 2.002.781 1.465 1.699 3.457 2.012 4.541.293 1.074 1.074 2.539 1.68 3.232.703.771 1.016 1.846.781 2.539-.313.615-.156 1.152.234 1.152.371 0 1.836 1.924 3.223 4.238 1.387 2.305 2.93 4.229 3.379 4.229.859 0 4.785 5.547 7.773 10.85 3.398 6.006 2.93 9.395-2.07 14.17-1.914 1.846-3.008 2.227-5.547 2.227-3.301-.156-3.379-.156-9.316-7.314-3.066-3.691-5.449-7.002-6.543-9.082-5.762-10.693-9.292-18.164-10.444-22.002-1.172-3.857-2.324-5.479-6.543-9.629-4.082-4.072-10.703-8.467-12.773-8.467-.781 0-.391 4.473.684 7.393 1.074 3.076 5.938 13.311 7.617 16.084.469.84 1.699 2.773 2.617 4.307.996 1.465 1.777 3.154 1.777 3.701 0 .537.605 1.924 1.387 2.998.762 1.162 1.992 3.623 2.773 5.547.762 1.914 1.758 4.229 2.227 5.156.605 1.309.449 2.461-.625 4.844-3.379 7.549-8.379 10.01-20.859 10.391-4.844.078-9.082.391-9.297.693-.234.234.996 1.924 2.754 3.691 1.777 1.855 3.398 3.848 3.555 4.619.234.693 1.309 1.465 2.305 1.699 1.074.303 2.461 1.533 3.086 2.764.684 1.309 1.445 2.314 1.758 2.314s1.23 1.152 1.992 2.539c.859 1.309 3.164 4.15 5.176 6.152 2.07 2.08 3.77 4.082 3.77 4.473 0 .381.449.693.996.693.625 0 2.773 1.924 4.844 4.307 2.09 2.383 4.395 4.922 5.078 5.615.698.693 2.085 2.383 3.081 3.701.996 1.299 3.379 4.609 5.469 7.227 1.992 2.695 3.613 5.391 3.613 6.084 0 .771.684 2.148 1.621 3.154 3.848 4.385 3.379 7.93-1.543 11.855-3.477 2.773-5.547 3.232-8.711 2.002-2.227-.85-25.62-24.551-29.233-29.707-.313-.391-1.543-1.934-2.695-3.389-1.23-1.465-3.848-5.01-5.996-7.852-6.777-9.092-13.008-17.236-13.477-17.627-.313-.234-1.074-1.465-1.758-2.773-.703-1.309-1.777-2.607-2.402-2.842-.684-.313-1.68-1.621-2.305-3.008-.527-1.387-1.777-3.232-2.617-4.15-.84-.928-2.383-3.086-3.379-4.854-3.398-6.152-4.082-7.393-7.085-11.777-1.611-2.461-3.232-4.463-3.623-4.463-.381 0-.684-.537-.684-1.152 0-1.465-2.539-6.465-3.232-6.543-.391 0-.469 6.387-.234 14.238.391 15.01 0 17.236-2.998 18.779-.85.459-2.461 1.465-3.545 2.314-3.311 2.461-6.23 2.539-8.926.225-1.387-1.152-5.078-4.307-8.311-7.08-3.848-3.232-7.549-7.383-10.547-11.777-9.082-13.311-11.934-23.32-9.473-33.32.391-1.465.156-1.543-4.082-1.24-4.072.313-4.766.078-6.992-1.768-1.387-1.152-3.389-3.691-4.541-5.693-1.162-1.924-2.549-3.848-3.086-4.15-1.387-.85-4.072-6.24-4.072-8.086 0-.85-.547-2.773-1.152-4.229-1.621-3.857-1.465-8.623.459-13.623.84-2.314 1.924-5.244 2.383-6.465.615-1.621 1.924-2.695 5-4.004 2.236-1.006 4.619-1.846 5.234-1.846s1.162-.156 1.162-.313c0-.85-2.314-4.541-3.545-5.693-.85-.693-2.695-3.232-4.238-5.547-1.533-2.305-4.072-6.23-5.771-8.691-1.611-2.461-4.15-6.24-5.537-8.467-1.387-2.236-2.93-4.307-3.535-4.775-.547-.381-1.543-2.002-2.314-3.53-.693-1.543-2.158-3.164-3.154-3.633-1.074-.527-1.924-1.23-1.924-1.68 0-.938-1.152-2.461-3.232-4.473-.771-.703-1.387-1.621-1.387-2.07 0-.391-1.777-2.461-3.848-4.473-2.158-2.07-3.848-4.082-3.848-4.453 0-.391-.537-.703-1.152-.703-.625 0-1.162-.313-1.162-.684 0-.781-11.855-9.941-13.848-10.703-.625-.234-1.699-1.074-2.314-1.777-1.387-1.602-9.619-4.531-12.773-4.531-3.77 0-5.771 3.066-7.617 11.914-1.387 6.25-1.318 7.637.771 26.953.449 4.312 1.689 10.386 2.617 13.081.459 1.309 1.143 4.385 1.533 6.924.771 4.697 5.234 21.855 7.314 28.096.615 1.924 2.227 7.08 3.613 11.543 1.309 4.463 2.998 9.473 3.691 11.084.625 1.699 1.084 3.77 1.006 4.697-.156.84.313 2.773.84 4.229.625 1.465 1.396 4.619 1.699 6.934.693 5.381 1.611 7.695 2.93 7.695.537 0 2.383 1.455 4.082 3.311 1.689 1.768 6.152 5.996 9.922 9.385s7.305 6.699 7.852 7.314c.615.615 4.541 4.766 8.77 9.238 4.16 4.385 7.627 8.311 7.627 8.691 0 .313 3.994 4.697 8.926 9.619 4.854 4.932 9.307 9.551 9.854 10.166.615.605 3.838 4.229 7.305 7.998 3.389 3.779 6.24 7.236 6.24 7.773 0 .469.918 1.387 1.992 1.934 1.084.605 2.539 2.148 3.164 3.457 1.152 2.158 3.848 5.234 15.156 17.314 2.617 2.773 6.006 6.777 7.617 9.004 1.621 2.236 4.004 5.156 5.4 6.621 1.377 1.387 3.535 4.082 4.766 5.928a135.868 135.868 0 0 0 5 6.543c1.465 1.768 4.937 6.006 7.69 9.316 2.773 3.311 5.703 6.689 6.621 7.539.859.923 3.555 4.082 5.938 7.153 2.461 3.003 7.07 8.389 10.234 11.934 5.605 6.235 8.008 10.083 8.008 13.008 0 2.08-4.473 5.85-7.48 6.313-3.066.537-7.988-2.08-9.531-5.005-.996-2.002-2.852-4.233-9.082-11.313-2.383-2.695-4.863-5.62-5.469-6.548-.605-.996-2.305-2.925-3.613-4.385-1.392-1.455-2.544-2.847-2.544-3.076 0-.308-1.543-2.153-3.467-4.233-1.846-2.08-3.848-4.619-4.385-5.693-.537-1.079-3.154-4.468-5.771-7.544-2.617-3.159-5.303-6.851-5.996-8.315-.703-1.46-1.699-2.612-2.236-2.612-1.006 0-7.08-6.548-8.467-9.155-.381-.693-1.074-1.543-1.543-2.002-.537-.391-1.924-2.158-3.154-3.848-1.23-1.699-3.545-4.316-5-5.85-3.311-3.389-5.234-5.625-7.695-9.16-1.006-1.465-3.311-4.16-5.01-5.85-4.766-4.854-13.467-14.629-13.467-15.244 0-.918-9.238-11.699-11.543-13.389-1.23-.996-2.305-2.08-2.305-2.461 0-.391-.771-1.543-1.699-2.539-.996-1.006-2.695-2.852-3.77-4.082-1.152-1.23-2.539-2.617-3.076-3.164-1.162-.996-14.932-15.615-21.25-22.471-2.148-2.305-4.229-3.926-4.609-3.691-.469.313-1.084 3.389-1.387 6.846-.615 7.393-2.549 11.934-6.309 15.322l-2.705 2.383 1.934 3.926c1.074 2.236 2.686 5.547 3.535 7.471.85 1.914 2.461 5 3.613 6.924 1.162 1.924 3.086 6.084 4.316 9.229 1.23 3.164 2.617 6.475 3.076 7.314 2.314 4.014 14.092 28.33 18.545 38.101 5.088 11.313 6.162 13.545 7.09 14.624.537.62 1.23 2.002 1.455 3.081.615 2.075 2.695 6.846 5.547 12.388.996 2.007 1.846 4.16 1.846 4.854s.918 2.69 2.002 4.463c1.152 1.772 3.076 5.923 4.238 9.233 1.221 3.311 2.539 6.621 2.92 7.31 2.695 5.239 9.307 19.248 9.307 19.702 0 .317.625 1.313 1.465 2.163.771.84 2.393 3.843 3.545 6.689 1.23 2.856 2.773 5.85 3.535 6.699 2.383 2.539 5 6.079 6.006 7.925.771 1.465.771 2.31-.313 4.39-1.074 2.31-3.838 5.078-5 4.927-.239.007-1.235-.379-2.241-.765zm-98.369-195.571a179.882 179.882 0 0 1-2.617-4.463c-.615-.996-2.383-3.691-4.004-5.928-1.533-2.227-3.066-5.078-3.301-6.387-.313-1.23-.771-2.305-1.084-2.305-.303 0-1.689-2.236-3.076-5.01-1.387-2.764-2.852-5-3.154-5-.391 0-.693-.85-.693-1.846 0-2.002-4.082-10.391-6.152-12.617-.771-.771-2.314-3.086-3.467-5.244-1.152-2.07-2.539-4.307-3.076-4.922-1.318-1.533-5-8.926-5-10 0-1.006-8.32-9.238-9.316-9.238-.391 0-.928-.469-1.162-1.084-.225-.605-1.23-1.309-2.227-1.533-1.006-.234-2.305-.928-2.852-1.465-1.377-1.309-8.926-6.24-12.158-7.852-1.465-.771-3.77-2.227-5.078-3.154-1.309-.996-2.617-1.846-2.93-1.846-.996 0-9.688-6.24-9.688-6.934 0-.459-.85-.771-1.934-.771-1.768 0-5.459-1.689-14.473-6.846-1.611-.85-3.232-1.621-3.613-1.621-.84 0-.225 3.623.771 5.01.303.459 1.387 3.008 2.314 5.771 1.992 5.625 10.078 21.475 14.16 27.939 1.455 2.305 3.613 5.85 4.766 7.93 5.625 10.156 28.555 35.781 38.027 42.48 11.611 8.232 13.389 9.316 21.934 13.633 7.236 3.613 13.623 5.605 17.93 5.684l2.617.078-1.464-2.459zm125.537-5.391c-.234-7.695-1.689-23.545-2.314-24.619-.225-.313-1.23-.625-2.227-.625-1.006 0-2.08-.303-2.305-.771-.234-.381-2.012-.762-3.857-.762-3.076 0-3.457.234-3.926 2.002-1.309 5.234 2.549 17.549 7.09 22.393.996 1.084 1.846 2.236 1.846 2.539 0 .391 5.459 6.934 5.771 6.934.068-.001 0-3.233-.078-7.091zm-110.293.313c.85-5.693-.537-20.703-2.08-23.086-2.002-3.008-8.389-8.857-15.234-14.014-2.002-1.455-4.697-3.848-6.006-5.156-1.309-1.387-2.695-2.539-3.086-2.539-1.064 0 .313 4.082 2.236 6.621 2.617 3.457 5.459 8.77 11.24 21.084.918 1.924 2.461 4.775 3.379 6.318 1.006 1.611 1.777 3.232 1.777 3.613 0 .459.84 2.002 1.924 3.535 1.006 1.621 2.461 4.16 3.232 5.85.693 1.621 1.465 2.773 1.689 2.617.157-.224.616-2.382.929-4.843zm331.943-2.93c-3.145-8.467-12.773-25.088-16.387-28.32-.918-.85-2.383-2.695-3.223-4.082-1.094-1.768-2.168-2.539-3.477-2.539-1.777 0-1.855.234-1.777 4.473.078 5.615.859 8.154 5.098 16.924 2.832 5.781 4.453 8.008 8.457 11.699 4.316 3.926 9.238 6.699 12.305 6.855.625.078.313-1.621-.996-5.01zm122.695 2.471c-1.016-1.387-3.398-4.932-5.313-7.852-4.316-6.387-6.074-11.475-6.309-18.242-.234-4.619-1.309-7.471-2.93-7.471-.313 0-2.07-.996-3.926-2.227-1.855-1.152-4.531-2.617-6.074-3.076-1.543-.469-3.477-1.621-4.16-2.393-1.543-1.768-5-2.08-5-.537 0 1.768 3.145 10.703 5.156 14.707 3.691 7.305 17.012 21.777 23.848 25.859 2.48 1.455 4.629 2.92 4.707 3.232.156.381.605.615.996.615s-.077-1.15-.995-2.615zm-278.002 1.074c1.309 0 1.855-.459 1.855-1.543 0-1.533-5.156-12.383-7.637-16.162-1.211-1.768-2.617-4.844-6.387-13.848-2.832-6.699-3.223-7.236-6.387-8.164-1.68-.459-6.152-2.305-9.922-4.082-4.004-1.836-8.008-3.154-9.629-3.154-1.523 0-3.848-.303-5.229-.684-2.07-.615-2.461-.469-2.842.918-1.074 4.16-.156 10.313 2.539 16.318.767 1.689 1.685 3.926 1.997 5 1.152 3.77 4.316 8.545 8.008 12.168 1.992 1.992 3.926 4.385 4.238 5.381.371.996 1.152 1.699 2.07 1.699.84 0 3.379.84 5.547 1.836 7.07 3.164 16.074 5.4 18.848 4.629.626-.156 1.934-.312 2.931-.312zm-82.896-39.638c2.314-.615 5.01-1.152 6.006-1.152 1.006 0 1.768-.313 1.768-.771 0-.693-5-8.154-6.152-9.229-.234-.234-1.543-1.777-2.998-3.389-4.395-5.156-13.086-11.162-17.939-12.314-1.768-.391-2.07-.156-2.539 1.689-.85 4.004 1.074 12.549 4.004 17.852 1.543 2.773 3.232 5.244 3.77 5.625 1.611.918 4.16 5.615 4.16 7.539 0 1.689.234 1.621 2.92-1.387 2.156-2.462 3.924-3.536 7-4.463zm199.727 3.769c.684-.615 1.23-1.846 1.23-2.695 0-.762.703-1.846 1.543-2.383s1.543-1.455 1.543-2.002c0-.459.684-1.543 1.523-2.227 2.246-1.934 1.934-2.695-1.758-5.01-3.848-2.383-10.313-5.996-10.781-5.996-1.152 0 1.621 16.699 3.164 19.473 1.465 2.383 1.915 2.539 3.536.84zM186.958 7760.07c-6.768-2.075-15.625-5.229-19.619-7.075-3.926-1.929-8.545-3.853-10.244-4.39-3.379-1.074-9.844-4.927-12.314-7.158-.84-.767-4.463-2.925-8.076-4.697-6.543-3.232-14.316-8.154-20.781-13.159-1.924-1.465-4.463-3.232-5.693-3.926-5.01-2.764-15.088-11.084-22.402-18.398-18.467-18.623-25.088-25.859-29.551-32.471-2.695-3.926-5.083-7.158-5.391-7.158-.229 0-1.079-1.152-1.846-2.539-.771-1.396-3.081-4.238-5.156-6.24-3.003-2.92-3.848-4.307-3.848-6.162 0-1.689-1.157-4.072-3.696-7.617-2.08-2.842-4.233-6.621-4.849-8.467-.537-1.768-1.387-3.613-1.846-4.15-.386-.547-1.235-1.465-1.772-2.08-.459-.615-.923-1.846-.923-2.617 0-.85-.537-1.924-1.152-2.461-.62-.537-1.851-2.539-2.773-4.463-.85-2.002-1.768-3.77-2.153-4.004-.693-.459-2.925-6.777-3.848-10.771-.386-1.465-1.694-4.932-3.003-7.705-1.387-2.773-3.311-8.994-4.468-13.848-1.616-7.314-1.919-10.313-1.689-16.934.308-7.773.386-8.311 3.462-13.936 4.39-8.154 5.078-9.16 6.157-9.16.537 0 1.001-.303 1.001-.771 0-.381 1.309-2.07 3.003-3.76 2.231-2.236 3.77-3.086 6.543-3.467 1.924-.313 3.54-.85 3.54-1.162 0-.381 1.616-.918 3.54-1.221 6.543-.928 7.158-2.09 3.618-5.781-3.389-3.457-6.694-7.534-8.159-10.229-1.46-2.695-6.079-9.395-8.774-12.852-1.001-1.152-1.772-2.539-1.772-3.086 0-.469-.845-1.992-1.846-3.301-1.001-1.387-2.075-3.32-2.388-4.395-.308-1.074-1.23-2.773-2.002-3.77-.845-.996-1.46-2.383-1.46-3.086 0-.762-.308-1.602-.693-1.992-.386-.469-1.309-3.691-2.002-7.324-.61-3.613-1.616-7.832-2.075-9.375-1.387-4.629-.308-19.556 1.689-24.189 2.773-6.309 5.776-11.855 6.392-11.855.308 0 .537-.449.537-.996 0-.527 1.387-2.227 3.159-3.691 1.689-1.465 3.54-3.008 3.999-3.457.537-.391 1.465-1.016 2.08-1.309.615-.313 2.388-1.309 3.848-2.168 4.927-2.988 10.005-4.297 16.162-3.984 8.467.293 13.237 1.23 16.47 3.145 1.543.918 3.232 1.699 3.696 1.699s1.924.918 3.389 2.07c1.382 1.23 3.462 2.852 4.614 3.691 1.152.859 4.932 4.238 8.311 7.539 3.389 3.242 6.465 5.938 6.777 5.938.303 0 .996.605 1.533 1.465 1.543 2.148 16.094 17.861 25.098 26.943 4.307 4.395 7.852 8.32 7.852 8.613 0 .391 1.533 2.383 3.457 4.551 1.924 2.148 3.467 4.16 3.467 4.453 0 .313 2.002 2.617 4.463 5.156s5.771 6.543 7.236 8.867c1.533 2.305 3.613 5.156 4.619 6.309.918 1.074 3.311 4.16 5.156 6.699 1.846 2.617 3.848 4.688 4.385 4.688s1.699.918 2.617 2.153c2.461 3.232 7.002 8.389 10.088 11.543 1.533 1.543 3.916 4.775 5.381 7.09 4.697 7.617 10.088 14.541 11.621 15.088 1.23.381 2.158-.156 4.082-2.393 2.236-2.773 2.617-2.93 6.768-2.852 2.393 0 4.395-.225 4.395-.605 0-2.236 7.314-1.006 10.313 1.768.85.693 2.148 1.309 2.92 1.309s1.621.537 1.855 1.152c.303.615 1.387 1.152 2.617 1.152s2.305.537 2.617 1.152c.225.615.918 1.162 1.455 1.162.615 0 1.543.537 2.08 1.143.537.625 1.465 1.162 2.158 1.162.615 0 1.689.615 2.383 1.377.693.771 2.92 2.705 5 4.238 2.08 1.611 4.316 3.545 4.854 4.395.615.84 1.768 1.533 2.539 1.533.918 0 1.543.615 1.689 1.768.156 1.084.85 1.777 2.002 1.934.928.146 1.699.693 1.699 1.299 0 .928 4.688 5.01 5.771 5.01.693 0 2.695 2.08 2.695 2.773 0 .303.84 1.299 1.846 2.227 1.689 1.533 1.924 1.611 2.148.537.156-.771-.146-2.998-.693-5.078-.537-2.08-.762-4.004-.615-4.385.234-.313.078-.771-.303-1.006-.928-.615-.156-6.768.996-7.773.469-.381 1.309-2.148 1.924-3.848 1.777-5 6.855-8.076 12.471-7.617 3.77.313 12.08 4.15 12.705 5.928.225.693 1.074 1.309 1.846 1.309.762 0 1.689.381 1.924.771.928 1.533 2.383.693 3.311-1.777 1.309-3.691 6.846-8.613 10.693-9.541 5.313-1.309 9.854 1.309 18.398 10.693 2.383 2.627 5.918 5.244 7.002 5.244.537 0 1.006.527 1.006 1.152 0 .615.381 1.152.762 1.152.459 0 .771.693.771 1.533 0 .85.459 1.543 1.006 1.543.615 0 1.455.85 1.924 1.924.537 1.084 1.533 1.924 2.383 1.924s1.768.693 2.002 1.543c.225.85.996 1.533 1.611 1.533.625 0 1.074.469 1.074 1.006s1.24 2.08 2.705 3.389l2.695 2.383 1.143-4.307c.703-2.471 1.543-5.703 2.012-7.236.459-1.777 2.148-4.316 4.229-6.387 3.232-3.164 3.926-3.467 7.314-3.467 2.002 0 3.926.381 4.15.771.234.459 1.465.771 2.695.771 3.232 0 5.537 1.074 8.623 4.072l2.764 2.695.547-2.461c.303-1.309.459-3.613.459-5.078-.078-3.232 1.846-8.389 3.623-9.775 1.768-1.309 4.766-1.23 4.766.078 0 .537 1.162 1.924 2.539 2.998 1.846 1.387 3.389 3.926 5.547 8.926 1.689 3.848 3.457 7.012 3.926 7.012.918 0 4.922 6.387 4.922 7.842 0 .625 1.465 2.773 4.844 7.168 1.318 1.768 4.551 6.455 7.393 10.771 1.689 2.539 4.854 7.236 7.002 10.391 10.547 15.469 11.396 17.314 10.166 21.396-1.309 4.385-4.932 7.852-8.086 7.852-2.383 0-5.918-2.461-5.918-4.16 0-.537-3.164-4.922-5.234-7.383-1.162-1.318-3.623-5.01-10.703-16.631-3.154-5.078-6.621-9.385-10.01-12.617-7.383-6.777-8.467-7.695-9.307-7.695-.391 0-1.543-.625-2.539-1.396-1.006-.762-3.389-2.305-5.313-3.311-1.924-.996-3.623-2.07-3.848-2.305-1.006-1.23-11.621-5.078-12.012-4.385-.996 1.611 1.543 10.547 4.922 17.168 3.467 6.846 7.783 13.076 13.477 19.473 2.695 3.076 2.92 3.613 2.461 6.387-.693 4.15-1.924 6.309-4.844 8.77-3.701 3.086-6.543 2.236-10.938-3.154-1.924-2.383-5.459-6.387-7.852-9.004-2.461-2.617-4.463-5-4.463-5.234 0-.313-2.236-2.852-5-5.771-2.695-2.93-5-5.771-5-6.309 0-.625-1.23-2.158-2.695-3.467s-2.695-2.617-2.695-2.93c0-.527-5.771-6.309-15.01-14.922-2.08-1.934-5.078-4.395-6.689-5.391-1.543-1.006-3.008-2.236-3.311-2.695-.693-1.074-5.078-3.311-5.547-2.773-.225.234.469 1.465 1.621 2.773 1.074 1.387 2.383 4.004 2.842 5.85.537 1.924 1.309 3.389 1.924 3.389s1.084.303 1.084.771c0 .693 1.309 2.305 13.545 16.387 7.383 8.623 8.008 9.629 8.008 13.389 0 3.008-.469 3.779-3.857 7.236-2.07 2.158-3.848 4.541-3.848 5.313 0 1.846-4.15 6.621-7.002 8.164-2.773 1.387-9.238 1.387-11.162-.078-.762-.615-1.924-1.152-2.461-1.152-.615 0-2.002-.615-3.076-1.465-1.152-.771-3.77-2.002-5.85-2.695-5.615-1.924-6.543-2.539-12.783-8.545-8.926-8.691-13.848-13.008-13.848-12.08 0 .459.303 1.074.771 1.309.459.234.615 4.15.459 9.463-.234 8.701-.313 9.16-2.695 12.705-3.076 4.541-8.926 8.535-15.088 10.459-3.916 1.24-5.771 1.309-11.924.771-4.004-.303-7.549-.381-7.852-.078-.234.313.156 1.768.918 3.232 1.465 2.695 1.855 3.545 3.164 6.777.615 1.689.918 1.689 13.926 1.768 31.328.156 49.795 0 54.492-.459 5.615-.615 8.701.234 10.01 2.695.693 1.309.459 1.924-1.768 4.229-1.465 1.465-3.164 2.695-3.857 2.695s-1.465.391-1.689.771c-.225.459-1.152.771-1.924.771s-1.533.303-1.689.693c-.234.693-5.85 1.543-20.244 3.232-3.389.381-13.857.693-23.32.615-9.473-.078-17.393.078-17.627.303-.234.234.156 2.08.771 4.16 2.002 6.006 3.691 20.088 3.311 27.168-.771 15.547-8.701 41.719-14.863 49.028-.762.923-2.227 2.925-3.301 4.39-1.084 1.538-2.549 2.764-3.311 2.764-.771 0-1.543.542-1.777 1.157-.303.615-.918 1.157-1.455 1.157-.547 0-1.152.229-1.309.61-.078.308-1.777 1.621-3.691 2.925-4.004 2.7-11.934 4.316-18.164 3.618-2.549-.229-4.16-.073-4.473.464-.774 1.234-2.005 1-15.628-3.082zm32.715-12.315c2.461-1.382 4.922-2.925 5.615-3.457.615-.62 1.465-1.079 1.846-1.079 2.002 0 6.162-7.622 8.779-16.162a417.969 417.969 0 0 1 3.691-11.855c.928-2.695 1.23-6.318 1.152-12.695-.225-18.242-2.227-26.406-13.691-56.035-1.162-2.93-2.93-6.768-4.004-8.701-1.084-1.924-2.393-4.385-3.008-5.537-1.23-2.461-5.537-4.229-6.543-2.764-.381.527-.918 1.377-1.23 1.768-1.309 1.846-6.387 3.457-9.385 2.998-2.695-.459-3.77-1.309-9.004-7.773-3.311-4.004-6.777-8.164-7.695-9.16-1.006-1.074-1.777-2.158-1.777-2.539 0-.303-.615-1.23-1.387-2.08-.762-.771-4.072-5.537-7.383-10.469-6.543-9.854-14.775-18.545-22.783-24.17-8.389-5.85-19.092-11.855-21.016-11.855-.996 0-2.461-.527-3.311-1.143-.762-.625-2.764-1.162-4.385-1.162-2.92 0-2.998 0-2.461 2.539.313 1.309 1.006 2.852 1.621 3.311.615.469 1.299 1.924 1.533 3.311.313 1.309.85 2.383 1.23 2.383 1.152 0 14.473 13.779 14.473 15.01 0 .625.537 1.162 1.152 1.162s1.152.459 1.152.996.693 1.387 1.543 1.924 1.543 1.465 1.543 2.08.771 1.533 1.768 2.002c.918.537 3.545 2.617 5.771 4.697 2.305 2.002 4.463 3.691 4.844 3.691.391 0 .693.537.693 1.152s.313 1.152.693 1.152c.391 0 .928.693 1.24 1.465.225.84 1.846 2.998 3.535 4.844 4.619 5.01 5.771 6.475 6.309 7.852.313.693.85 1.24 1.309 1.24.391 0 .771.459.771.996 0 .615.693 1.689 1.543 2.461 2.92 2.617 6.152 8.311 6.152 10.703 0 1.611-.84 3.311-2.617 5.156-2.383 2.539-3.076 2.842-8.076 3.311-5.469.537-5.615.537-9.697-2.236-5-3.311-5.771-4.082-16.709-17.314-15.313-18.633-29.854-39.873-29.854-43.799 0-.928-.313-1.611-.703-1.611-.381 0-1.152-.928-1.689-2.08-3.389-6.699-5.537-9.463-7.305-9.463-1.006 0-1.855-.313-1.855-.771 0-.391-.303-.771-.693-.771-1.152 0-7.773-4.619-7.773-5.469 0-.381-.615-.684-1.387-.684-.762 0-2.227-.85-3.154-1.855-.996-1.074-3.691-2.842-5.928-3.916-2.227-1.084-4.307-2.314-4.541-2.705-.225-.381-1.689-1.074-3.223-1.611-1.621-.537-3.389-1.387-3.931-2.002-2.231-2.148-3.311-.85-1.309 1.768 1.46 1.934 1.46 3.311 0 3.857-1.079.459-1.694-.078-8.003-7.393-3.848-4.385-8.701-7.158-14.78-8.389-5.386-1.152-12.314-1.23-14.238-.303-.767.449-2.695.996-4.155 1.299-5.156.928-8.545 9.395-8.467 21.25 0 10.391 1.387 18.467 3.081 18.467.308 0 1.152 2.617 1.919 5.771.693 3.154 1.543 5.928 2.002 6.162.386.303.698 1.299.698 2.305s.308 2.002.688 2.305c.386.234 1.001 1.543 1.23 2.93.308 1.309 2.388 5.771 4.541 9.775 4.697 8.545 5.078 9.238 7.471 13.857.918 1.914 2.227 3.926 2.769 4.453.537.547 1.001 1.699 1.001 2.549 0 1.768 3.54 5.615 4.619 4.922.386-.225 1.616.918 2.612 2.617 1.079 1.689 2.539 3.467 3.311 4.082.771.537 2.617 2.539 4.082 4.463 2.461 3.232 12.388 14.473 18.237 20.781 1.387 1.465 5.313 5.928 8.701 9.854 5.537 6.23 17.393 17.002 28.32 25.703 2.002 1.621 5.771 4.004 8.467 5.313 2.695 1.387 6.465 3.926 8.467 5.693 3.623 3.232 17.705 13.394 24.551 17.705 2.002 1.304 6.309 3.232 9.551 4.307 3.145 1.157 6.846 2.539 8.076 3.232 3.848 1.924 15.088 5.776 20.625 7.08 2.93.615 5.693 1.543 6.162 1.851 2.845 2.379 12.396 1.534 18.011-1.547zm37.715-125.141c.537-.537 1.689-1.006 2.461-1.006 1.309 0 1.543-.381 3.076-5 1.084-3.154-1.152-12.08-4.082-16.387-1.23-1.777-1.992-3.779-1.768-4.395.234-.615 0-.928-.615-.693-.459.156-2.08-1.309-3.535-3.311-1.465-2.002-3.154-4.229-3.848-4.844-.625-.693-1.855-2.08-2.773-3.164-.85-.996-2.852-2.92-4.307-4.15-1.465-1.309-2.852-2.695-3.008-3.076-.537-1.387-11.924-10.244-16.543-12.939-2.471-1.533-5.928-3.76-7.549-5.078-1.689-1.299-3.77-2.539-4.619-2.764-7.92-1.621-9.229-1.768-10.615-.928-2.461 1.621-1.387 5.234 4.385 14.619 1.924 3.008 3.467 5.781 3.467 6.084 0 .313 1.768 2.852 3.848 5.693 2.148 2.852 3.848 5.469 3.848 5.771 0 .391.771.85 1.768 1.084 1.152.313 2.158 1.455 2.773 3.154.537 1.465 1.465 2.617 2.08 2.617s1.074.537 1.074 1.152.381 1.152.771 1.152c1.152 0 .918 2.002-.391 3.086-1.074.85-1.074 1.152-.068 2.695.615.996 1.924 3.926 2.764 6.621.928 2.686 1.924 5.078 2.158 5.303.303.234 1.074 1.387 1.689 2.617 1.846 3.701 5.547 5.234 15.322 6.621 9.082 1.311 10.459 1.233 12.237-.534zm63.261-9.551c0-3.311-3.076-9.082-7.852-14.932-5.537-6.689-10.078-12.617-11.084-14.316-.459-.771-.996-1.299-1.23-1.074-.225.234-2.158-1.152-4.307-3.076-2.08-1.924-4.15-3.467-4.541-3.467-.381 0-1.387-.615-2.227-1.299-.771-.771-2.852-2.158-4.551-3.086-1.689-.85-5.078-2.695-7.461-4.004-2.461-1.309-4.541-2.07-4.775-1.689-.459.693 1.621 7.002 2.93 8.545.459.615 1.387 2.148 2.002 3.301.615 1.162 2.148 3.232 3.467 4.629 1.299 1.377 3.301 4.072 4.453 5.918 1.084 1.924 3.545 5.234 5.469 7.314 1.924 2.158 3.467 4.082 3.545 4.463 0 .303.459.537.996.537s2.393 1.162 4.082 2.549c5.693 4.766 10.693 8.076 15.313 10 2.539 1.152 4.854 2.002 5.234 2.08.313 0 .537-1.075.537-2.393zm-117.138-10.615c-.537-.85-1.621-1.699-2.393-1.924-1.23-.303-1.377-.85-.996-3.086.313-1.455.156-2.842-.234-3.076-.84-.537-3.154-4.922-3.154-5.996 0-.391-.537-1.24-1.152-1.855-.615-.684-1.152-1.846-1.152-2.617s-1.006-2.148-2.305-3.076c-1.24-.918-2.314-2.158-2.314-2.773 0-.605-.303-1.074-.771-1.074-.381 0-.762-.459-.762-.918 0-.547-1.475-2.539-3.32-4.463-1.768-1.934-4.072-4.775-5.146-6.396-1.084-1.543-2.158-2.842-2.471-2.842-.381 0-.615-.469-.615-1.006 0-.615-.771-1.689-1.611-2.539-.928-.771-2.852-3.154-4.238-5.313-6.465-9.775-9.541-13.545-14.854-18.545-3.076-2.92-7.617-7.93-9.932-11.084-2.383-3.154-5.918-7.695-7.842-10.073-1.924-2.402-4.932-6.406-6.699-8.867-1.777-2.539-4.775-6.152-6.543-8.066-5.01-5.391-14.629-15.938-16.621-18.242-13.086-15.02-33.721-35.889-41.338-41.885-4.233-3.242-8.232-6.465-8.926-7.012-4.312-3.691-16.934-5.391-22.168-2.91-7.847 3.691-13.159 13.008-13.159 23.252 0 7.383 3.926 24.395 6.851 29.629.459.84 2.539 5.234 4.692 9.844 2.158 4.551 4.39 8.77 5.005 9.395.537.625 1.465 2.383 2.002 3.926.537 1.621 1.538 3.77 2.231 4.844 4.233 6.309 5.386 8.315 5.386 9.399 0 .693.386 1.533.85 1.846.459.225 1.689 2.383 2.695 4.688 2.305 5.166 3.384 6.24 6.387 6.855 1.309.303 2.383.771 2.383 1.152 0 .313 1.309.85 2.852 1.152 3.926.771 10.078 3.926 11.006 5.693.459.85 1.465 1.543 2.227 1.543 2.002 0 6.006 2.158 6.543 3.467.234.615 1.084 1.152 1.846 1.152.85 0 2.852 1.006 4.541 2.227 1.699 1.24 3.779 2.471 4.697 2.695.928.313 1.699.928 1.699 1.309 0 .391.459.693 1.074.693s1.768.85 2.617 1.924c.84 1.074 2.002 1.924 2.617 1.924s2.227 1.24 3.535 2.773l2.471 2.695 2.305-1.309c1.23-.771 2.314-2.002 2.314-2.695 0-2.393 6.23-4.619 14.844-5.381 4.316-.391 8.857-.469 10.01-.234 2.852.615 15.625 6.611 19.092 9.004 1.533.996 3.994 2.08 5.537 2.383 1.621.313 2.852.85 2.852 1.23 0 .391 1.611 2.383 3.535 4.395 1.924 2.07 4.619 5.156 5.928 7.002 1.309 1.768 2.617 3.232 2.998 3.232.391 0 1.006.84 1.396 1.924.381 1.074 1.074 1.924 1.533 1.924.381 0 .771.459.771 1.074s.693 1.309 1.543 1.621c.84.225 2.148 1.455 2.998 2.617.85 1.152 2.773 2.764 4.229 3.535 1.543.85 2.773 1.846 2.773 2.236 0 1.152 3.232 4.307 4.385 4.307.537 0 1.006.537 1.006 1.152 0 1.465 3.076 5 4.385 5 .846-.001.846-.304.075-1.456zM417.632 7358.839c0-1.992 1.23-2.773 4.688-2.773h2.236V7296.809h2.305c2.08 0 2.314.234 2.314 2.227 0 2.461 1.152 3.77 1.768 2.07.85-2.227 7.012-4.297 12.549-4.297 4.463 0 5.928.313 8.467 1.992 5.85 3.77 8.311 9.629 8.311 19.941 0 8.535-1.621 14.316-5.313 18.632-3.389 3.906-6.699 5.078-13.467 4.688-4.619-.234-5.693-.625-8.389-2.773l-3.154-2.539V7360.676h-6.152c-6.007-.001-6.163-.079-6.163-1.837zm32.021-24.394c3.613-3.535 5.156-8.926 4.766-17.089-.303-7.383-2.08-11.543-6.006-14.16-4.844-3.379-12.773-1.777-16.621 3.242-1.777 2.305-1.846 2.988-1.846 12.695 0 9.375.146 10.527 1.689 12.773 4.386 6.308 12.852 7.539 18.018 2.539zM512.446 7358.605c.244-1.836.615-2.148 3.154-2.383l2.861-.234v-19.317l-2.705 2.305c-3.066 2.773-6.309 3.555-12.617 3.086-5.85-.391-9.16-2.852-12.158-8.848-1.846-3.926-2.158-5.547-2.393-12.929-.225-7.168-.068-9.16 1.396-12.852 1.914-5.156 6.299-9.551 10.381-10.313 5.078-.938 11.553 0 14.854 2.148 3.311 2.227 4.004 2.07 4.004-.703 0-1.68.234-1.758 5.771-1.758h5.771v2.227c0 1.992-.303 2.227-3.457 2.695l-3.467.547V7360.674H512.22l.226-2.069zm-.146-22.48c1.465-.762 3.457-2.539 4.463-3.926 1.533-2.305 1.699-3.379 1.699-13.144v-10.625l-2.314-2.695c-2.852-3.242-6.699-4.629-11.24-4.082-4.619.469-7.08 2.305-9.004 6.543-4.385 10-1.074 25.781 5.928 28.632 2.772 1.152 7.694.839 10.468-.703zM672.388 7358.449c0-2.305 1.387-3.145 5.234-3.145h1.689v-52.948l-1.689-.469c-1.006-.234-2.539-.469-3.467-.469-1.465 0-1.768-.449-1.768-2.305v-2.305H691.63v2.305c0 1.855-.313 2.305-1.699 2.305-.996 0-2.539.234-3.457.469l-1.777.469v58.32H672.388v-2.227zM388.306 7340.675c-4.004-2.07-8.232-7.383-9.541-11.855-.615-2.07-1.152-6.308-1.152-9.316 0-7.227 1.611-12.383 5.156-16.465 3.848-4.551 7.764-6.23 14.463-6.23s10.078.918 13.389 3.613l2.539 2.148-1.533 1.934c-1.543 1.855-1.621 1.855-3.076.449-3.701-3.223-11.777-4.453-16.621-2.461-3.242 1.406-6.475 5.469-7.861 10.156-2.07 6.934-3.076 6.484 14.316 6.484h15.4v4.921c0 8.32-3.008 14.082-8.779 16.699-4.308 1.994-12.931 1.915-16.7-.077zm13.925-4.55c3.008-1.602 6.162-6.836 6.162-10.234v-2.148h-12.314c-13.701 0-13.389-.156-11.162 5.156 3.232 7.616 10.703 10.78 17.314 7.226zM548.394 7340.675c-4.004-2.07-8.232-7.383-9.541-11.855-1.465-4.922-1.465-13.691 0-18.71 1.465-4.844 6.23-10.371 10.547-12.07 3.613-1.465 11.309-1.777 15.771-.547 1.611.469 4.082 1.777 5.547 2.93l2.539 2.148-1.543 1.934c-1.543 1.855-1.621 1.855-3.076.449-3.691-3.223-11.777-4.453-16.621-2.461-3.232 1.406-6.465 5.469-7.861 10.156-2.07 6.934-3.076 6.484 14.316 6.484h15.4v4.921c0 8.32-3.008 14.082-8.779 16.699-4.307 1.993-12.93 1.914-16.699-.078zm13.935-4.55c2.998-1.602 6.152-6.836 6.152-10.234v-2.148h-12.314c-13.701 0-13.389-.156-11.162 5.156 3.232 7.616 10.703 10.78 17.324 7.226zM639.214 7340.675c-4.004-2.07-8.232-7.383-9.541-11.855-1.465-4.922-1.465-13.691 0-18.71 1.465-4.844 6.23-10.371 10.547-12.07 3.613-1.465 11.309-1.777 15.771-.547 1.621.469 4.082 1.777 5.547 2.93l2.539 2.148-1.543 1.934c-1.533 1.855-1.611 1.855-3.076.449-3.701-3.223-11.777-4.453-16.621-2.461-3.232 1.406-6.475 5.469-7.852 10.156-2.08 6.934-3.076 6.484 14.316 6.484h15.391v4.921c0 8.32-3.008 14.082-8.779 16.699-4.307 1.993-12.93 1.914-16.699-.078zm13.935-4.55c2.998-1.602 6.152-6.836 6.152-10.234v-2.148h-12.314c-13.701 0-13.389-.156-11.162 5.156 3.233 7.616 10.703 10.78 17.324 7.226zM708.564 7340.753c-7.168-3.848-10.156-9.316-10.625-19.316-.391-8.398.469-12.168 3.691-17.012 3.32-5.078 8.477-7.695 15.234-7.695 6.777 0 10.938 1.621 14.785 6.074 3.77 4.238 5.391 9.316 5.391 16.777 0 10-4.238 18.007-11.094 21.171-4.296 1.915-13.69 1.915-17.382.001zm16.387-5.703c7.324-5.547 8.691-20 2.773-28.242-2.93-4.004-6.699-5.703-11.699-5.156-8.32.762-13.477 8.77-12.695 19.785.547 7.382 4.004 13.242 9.082 15.312 3.379 1.465 9.531.626 12.539-1.699zM761.665 7341.359c-1.074-.371-3.086-1.836-4.395-3.223l-2.539-2.383V7341.437h-5.757c-5.547 0-5.781-.078-5.781-1.836 0-1.543.469-1.934 3.477-2.305l3.452-.547v-51.328l-3.452-.469c-3.008-.469-3.477-.781-3.477-2.461v-1.855h18.471v1.855c0 1.543-.469 1.914-3.086 2.383l-3.066.547v8.066c0 7.773.059 8.086 1.387 6.934 3.691-3.379 12.988-4.844 18.242-2.852 3.066 1.152 6.309 4.316 8.301 8.086 1.465 2.695 1.699 4.316 1.699 13.086 0 9.16-.156 10.39-2.012 14.316-1.23 2.617-3.223 5.234-5 6.543-2.539 1.914-3.613 2.227-8.691 2.383-3.222.157-6.699-.155-7.773-.624zm11.621-5.527c1.465-.918 3.457-3.398 4.551-5.547 1.68-3.32 1.914-4.844 1.914-11.542 0-7.012-.234-8.008-2.07-11.23-4.395-7.48-14.395-8.242-20.098-1.543-2.07 2.461-2.07 2.695-2.07 13.535 0 10.859 0 11.093 2.07 13.554 4.004 4.687 10.938 5.995 15.703 2.773zM803.911 7340.675c-4.004-2.07-8.223-7.383-9.531-11.855-1.465-4.922-1.465-13.691 0-18.71 1.465-4.844 6.23-10.371 10.547-12.07 3.613-1.465 11.309-1.777 15.762-.547 1.621.469 4.082 1.777 5.547 2.93l2.539 2.148-1.543 1.934c-1.523 1.855-1.602 1.855-3.066.449-3.691-3.223-11.777-4.453-16.641-2.461-3.223 1.406-6.465 5.469-7.832 10.156-2.09 6.934-3.086 6.484 14.316 6.484H829.4v4.921c0 8.32-3.008 14.082-8.77 16.699-4.317 1.993-12.949 1.914-16.719-.078zm13.945-4.55c2.988-1.602 6.152-6.836 6.152-10.234v-2.148h-12.324c-13.691 0-13.379-.156-11.152 5.156 3.242 7.616 10.703 10.78 17.324 7.226zM855.181 7341.066c-1.23-.703-3.086-2.168-4.004-3.32-1.699-1.992-1.777-1.992-1.777-.371 0 3.691-.605 4.063-6.621 4.063-5.449 0-5.684-.078-5.684-1.836 0-1.543.449-1.934 3.457-2.305l3.477-.547v-34.473l-3.477-.547c-3.145-.469-3.457-.703-3.457-2.695v-2.227h19.238v2.227c0 1.992-.313 2.227-3.457 2.695l-3.477.547v12.773c0 14.003.547 16.308 4.785 19.863 1.836 1.523 3.145 1.914 6.465 1.914 2.773 0 4.141.313 4.141.996 0 .469.234 1.699.469 2.695.469 1.621.234 1.699-3.613 1.699-2.305.001-5.157-.546-6.465-1.151zM306.03 7339.679c0-1.309.615-1.934 2.461-2.461 2.383-.781 2.461-.938 7.314-17.714 2.686-9.316 5.234-18.242 5.693-19.844.693-2.695.996-2.93 3.232-2.695l2.383.234 4.854 15c2.695 8.242 5.078 16.171 5.313 17.539.459 2.461 1.846 3.477 1.846 1.387 0-.605 2.461-8.613 5.459-17.773l5.391-16.621 2.393.234 2.383.234 5.771 19.844c5.693 19.394 5.85 19.863 7.998 20.332 1.621.293 2.158.84 2.158 2.227 0 1.836-.078 1.836-7.695 1.836-7.627 0-7.695 0-7.695-1.836 0-1.465.537-2.012 2.305-2.383 1.309-.313 2.314-.938 2.314-1.387 0-.781-6.543-25.781-7.393-28.261-.225-.605-1.533 2.48-2.92 6.934-1.387 4.473-3.848 12.324-5.469 17.539l-3.008 9.473-2.686-.234-2.695-.215-3.691-11.934c-2.08-6.542-4.619-14.628-5.547-18.007l-1.768-6.016-.537 3.242c-.313 1.758-2.08 8.77-3.926 15.468-1.924 6.699-3.467 12.383-3.467 12.539 0 .234 1.23.625 2.695.938 2.158.371 2.695.84 2.695 2.305 0 1.836-.078 1.836-8.086 1.836-7.918-.002-8.075-.002-8.075-1.76zM580.024 7339.601c0-1.465.547-2.012 2.236-2.383 2.08-.469 2.617-1.543 9.854-20.253 7.539-19.316 7.773-19.766 10-20l2.236-.234 7.695 19.863c7.461 19.238 7.773 19.843 10.156 20.625 1.846.527 2.461 1.152 2.461 2.461 0 1.758-.146 1.758-8.076 1.758s-8.076 0-8.076-1.758c0-1.387.615-2.012 2.607-2.539l2.617-.703-5.85-15.761c-3.232-8.633-6.074-15.02-6.23-14.238-.156.84-2.617 7.754-5.537 15.449-2.93 7.695-5.313 14.179-5.313 14.394 0 .234 1.074.625 2.305.938 1.777.371 2.305.918 2.305 2.383 0 1.836-.068 1.836-7.695 1.836-7.616-.002-7.695-.002-7.695-1.838zM258.315 7322.59v-2.695H278.325v5.39H258.315v-2.695zM894.048 7322.59v-2.695h20v5.39h-20v-2.695z"/></g></svg></svg>