<?xml version="1.0" encoding="utf-8"?>
<!-- Generator: Adobe Illustrator 16.0.0, SVG Export Plug-In . SVG Version: 6.00 Build 0)  -->
<!DOCTYPE svg PUBLIC "-//W3C//DTD SVG 1.1//EN" "http://www.w3.org/Graphics/SVG/1.1/DTD/svg11.dtd">
<svg version="1.1" id="Layer_1" xmlns="http://www.w3.org/2000/svg" xmlns:xlink="http://www.w3.org/1999/xlink" x="0px" y="0px"
	 width="119.408px" height="56.823px" viewBox="0 0 119.408 56.823" enable-background="new 0 0 119.408 56.823"
	 xml:space="preserve">
<g transform="translate(0.000000,784.000000) scale(0.100000,-0.100000)">
	<path fill="#FFFFFF" d="M631.675,7830.88c-3.154-1.23-7.705-7.002-10.01-12.773c-0.615-1.387-1.309-2.539-1.689-2.539
		c-0.391,0-0.693-0.542-0.693-1.157c0-0.693-0.469-1.382-0.996-1.538c-1.006-0.464-4.551-7.08-10.166-19.243
		c-1.924-4.233-4.395-9.312-5.391-11.392c-1.074-2.002-1.914-4.155-1.914-4.771c0-1.001-5.244-12.852-7.012-15.781
		c-0.381-0.61-0.928-1.689-1.152-2.31c-0.225-0.61-2.998-6.382-6.152-12.847c-3.164-6.47-5.703-12.241-5.703-12.856
		c0-0.688-0.615-1.538-1.387-1.924s-1.924-2.231-2.461-4.082c-0.537-1.846-1.455-3.843-2.002-4.463
		c-0.537-0.61-1.309-2.69-1.846-4.614c-1.533-5.771-11.318-26.016-16.543-34.248c-1.396-2.158-2.695-5.156-3.008-6.621
		c-0.234-1.543-1.152-3.389-2.002-4.16c-1.992-1.846-3.848-5.537-3.848-7.773c0-0.996-0.303-2.002-0.762-2.236
		c-0.391-0.225-0.771-1.074-0.771-1.846s-1.465-2.842-3.232-4.531c-2.852-2.852-3.623-3.232-6.699-3.232
		c-6.318,0-19.238-3.311-25.479-6.621c-1.924-0.928-4.307-2.236-5.391-2.773c-2.148-1.084-11.621-7.236-18.926-12.393
		c-7.158-4.922-9.932-7.539-12.168-11.465c-1.23-2.08-2.461-3.691-2.842-3.691c-0.928,0-3.311-2.236-4.238-4.004
		c-0.381-0.771-2.305-3.008-4.229-5.01c-4.16-4.307-11.465-13.848-11.465-14.932c0-0.381-0.313-0.693-0.625-0.693
		c-0.693,0-4.766-5.928-4.766-6.924c0-0.303-0.537-0.771-1.152-1.074c-0.625-0.234-1.152-0.771-1.152-1.24
		c0-0.381-1.24-2.461-2.705-4.531c-1.455-2.002-2.686-4.014-2.686-4.316s-1.23-2.305-2.773-4.463
		c-1.543-2.08-4.385-7.002-6.387-10.85c-2.08-3.848-5.01-9.395-6.543-12.393c-1.611-2.93-4.473-9.16-6.309-13.779
		c-3.008-7.158-3.389-8.77-2.852-11.084c0.928-3.77,6.162-7.544,11.465-8.228c4.697-0.625,12.549,1.606,17.783,5.151
		c1.768,1.152,3.545,2.158,3.848,2.158c0.381,0,2.314,0.996,4.229,2.236c1.924,1.221,4.238,2.461,5.078,2.686
		c0.928,0.303,3.701,1.924,6.24,3.613c2.461,1.621,4.766,3.008,5.078,3.008s1.006,0.537,1.465,1.152
		c1.23,1.689,5.85,2.93,5.85,1.611c0-0.605-0.537-1.455-1.152-1.992c-0.693-0.547-2.236-3.154-3.389-5.703
		c-4.854-10.459-5-10.771-8.613-14.312c-1.465-1.543-4.551-6.387-6.777-10.781c-2.236-4.453-4.775-8.77-5.625-9.609
		c-1.309-1.387-3.076-4.551-8.691-15.391c-1.084-2.09-2.852-5.234-3.848-6.934c-1.074-1.699-2.314-3.926-2.852-5
		c-0.459-1.074-1.387-2.461-1.924-3.164c-0.615-0.684-1.768-2.539-2.539-4.082c-3.076-5.684-4.385-7.852-6.777-11.602
		c-1.299-2.09-2.461-4.482-2.461-5.264c0-1.914-0.996-3.535-4.16-7.07c-1.533-1.621-2.764-3.535-2.764-4.238
		c0-0.605-0.996-3.223-2.314-5.762c-1.221-2.539-2.305-4.941-2.305-5.234c0-0.391-0.537-1.172-1.152-1.855
		c-0.693-0.605-1.465-2.227-1.699-3.457c-0.225-1.23-0.918-2.461-1.465-2.695c-0.605-0.234-1.074-0.938-1.074-1.465
		c0-0.625-0.918-2.93-2.07-5.156c-4.16-7.93-4.238-8.242-2.236-8.242c0.996,0,3.232,1.152,5.078,2.539
		c1.846,1.309,3.848,2.852,4.541,3.242c5.928,3.77,7.852,5.234,10.693,8.145c1.777,1.855,4.629,6.016,6.24,9.16
		c1.533,3.164,4.922,9.629,7.383,14.238c2.471,4.707,5.4,10.239,6.543,12.334c1.084,2.148,2.93,5.313,4.004,7.012
		c1.152,1.758,2.617,4.375,3.311,5.762c1.768,3.77,3.613,7.168,4.16,7.617c0.615,0.469,2.002,3.008,5.303,9.238
		c1.396,2.773,3.086,5.547,3.701,6.23c0.615,0.625,1.074,1.543,1.074,1.934c0,0.371,1.387,2.695,3.086,5.234
		c1.689,2.461,3.076,4.844,3.076,5.234s1.152,2.305,2.461,4.297c2.93,4.16,9.854,15.488,9.854,16.016
		c0,0.156,1.23,2.085,2.695,4.233c1.465,2.158,2.686,4.316,2.686,4.697s0.85,1.846,1.934,3.232c1.074,1.387,1.924,2.92,1.924,3.311
		c0,0.459,0.537,1.23,1.152,1.768c1.309,1.074,3.457,5.156,3.457,6.621c0,0.537,0.771,1.924,1.777,3.154
		c0.918,1.152,2.08,2.852,2.617,3.691c7.305,12.168,7.773,12.773,13.623,16.855c9.307,6.621,14.316,10.703,14.316,11.699
		c0,0.625,0.615,1.084,1.377,1.084c0.771,0,2.236,0.918,3.311,2.002c1.006,1.074,3.008,2.686,4.395,3.535
		c1.455,0.928,3.535,2.461,4.688,3.535l2.012,1.855l0.225-1.924c0.156-1.074-0.156-2.695-0.547-3.545
		c-0.449-0.84-0.84-2.08-0.84-2.764c0-0.693-0.693-2.695-1.465-4.473c-0.84-1.768-2.07-5.615-2.842-8.613
		c-0.693-2.93-1.777-6.396-2.314-7.695c-0.537-1.24-1.689-5.078-2.617-8.389c-0.928-3.389-1.768-6.396-1.992-6.777
		c-0.234-0.391-0.771-2.93-1.162-5.771c-0.381-2.773-1.387-7.852-2.227-11.318c-0.85-3.389-1.621-8.311-1.768-10.845
		c-0.156-2.539-0.547-5.156-0.771-5.781c-0.85-2.148-1.318-16.855-0.547-17.305c0.469-0.313,0.615-0.781,0.391-1.152
		c-0.771-1.328,1.924-10.781,4.541-16.094c1.543-3.008,3.926-6.309,5.547-7.617c3.691-3.008,10.615-5.547,15.381-5.547
		c4.316,0,12.852,1.992,13.242,3.086c0.156,0.449,0.693,0.762,1.074,0.762c1.318,0,12.939,7.539,17.012,11.094
		c8.389,7.227,17.471,16.992,17.471,18.848c0,0.469,0.547,0.84,1.152,0.84c0.693,0,1.543,0.859,1.934,1.934
		c0.381,1.074,1.074,1.914,1.455,1.914c0.391,0,0.85,0.625,1.162,1.387c0.459,1.543,1.914,3.848,3.379,5.391
		c0.469,0.547,0.928,1.309,0.928,1.621c0,0.391,0.84,1.543,1.924,2.695c1.074,1.152,1.924,2.91,1.924,4.004
		c0,0.996,0.693,2.456,1.533,3.149c0.85,0.771,1.543,1.924,1.543,2.695s0.537,1.387,1.162,1.387c0.605,0,1.152,0.303,1.152,0.762
		c0,0.391,0.918,1.621,2.158,2.695c1.768,1.699,2.07,2.539,2.07,6.162c0,3.613,0.234,4.238,1.387,4.238
		c0.85,0,1.621,0.684,1.846,1.533s0.693,1.533,1.074,1.533c0.391,0,0.693,0.771,0.693,1.777c0,0.918,0.615,2.08,1.387,2.539
		c0.771,0.537,1.846,2.383,2.471,4.16c0.527,1.768,1.768,3.848,2.617,4.619c4.385,3.926,7.148,5.996,8.613,6.465
		c2.383,0.762,21.709,20.771,22.324,23.086c0.615,2.686,1.455,2.539,2.695-0.459c0.537-1.387,2.227-3.545,3.691-4.854
		c3.232-2.852,9.15-5.313,10.391-4.307c0.459,0.381,3.608,1.299,7.007,2.002c7.383,1.465,14.238,4.463,14.238,6.074
		c0,0.693,0.527,1.24,1.152,1.24c0.605,0,1.777,0.605,2.539,1.377c2.305,2.236,5.547,4.082,6.387,3.623
		c0.547-0.391,0.469-0.85-0.078-1.543c-0.996-1.23,0.078-4.307,2.695-7.773c2.227-2.93,9.551-5.078,12.012-3.545
		c0.762,0.547,2.773,0.928,4.297,0.928c4.082,0.078,11.621,4.004,16.172,8.467l1.621,1.621l3.218-2.08
		c3.926-2.617,7.246-2.617,14.785,0c4.297,1.533,5.391,1.689,5.684,0.84c0.234-0.615,1.621-1.992,3.164-3.154
		c2.383-1.846,3.086-1.924,6.934-1.455c4.141,0.537,4.219,0.605,5.762,4.072c0.859,2.002,2.012,4.697,2.617,6.084
		c0.625,1.309,1.074,2.695,1.074,3.076c0,0.313,1.016,3.232,2.246,6.387c1.152,3.164,2.617,7.158,3.145,8.779
		c0.547,1.611,1.855,3.77,3.008,4.766c4.531,4.004,19.082,8.164,32.793,9.395c4.219,0.391,7.773,0.537,7.93,0.459
		c0.137-0.068-1.465-1.846-3.555-3.926c-4.219-4.082-10.313-14.082-13.457-21.934c-1.465-3.77-2.168-7.158-2.539-13.086
		c-0.547-7.852-0.469-8.154,1.836-13.008c1.309-2.764,3.398-5.693,4.766-6.689c2.637-1.924,9.395-3.164,10.938-1.924
		c0.547,0.381,2.773,1.23,4.844,1.768c3.789,1.074,8.086,3.154,10.391,5.156c0.625,0.537,3.77,3.076,6.934,5.693
		s6.699,5.693,7.773,6.777c1.074,1.074,3.848,3.311,6.23,5c2.305,1.621,5.703,4.697,7.383,6.924c4.16,5.156,8.477,9.316,9.082,8.701
		c0.234-0.234,0-1.777-0.527-3.389c-0.625-1.621-1.074-3.232-1.074-3.691c-0.078-0.391-0.313-2.002-0.625-3.467
		c-0.918-4.541,1.23-12.617,4.004-15.313c2.93-2.852,7.09-4.082,11.25-3.232c7.148,1.455,25.469,12.383,40.391,24.004
		c2.168,1.699,2.93,1.777,5.703,0.771c1.777-0.693,1.855-0.996,1.465-4.844c-0.469-4.844,1.465-12.471,3.926-15.088
		c5.391-6.006,15.156-6.23,26.172-0.537c6.602,3.467,10.469,6.309,11.309,8.545c0.313,0.996,1.309,2.158,2.148,2.539
		c1.309,0.693,2.09,0.303,5.156-2.314c2.012-1.689,4.16-3.838,4.844-4.688c1.387-1.689,4.785-2.539,14.316-3.848
		c9.863-1.387,20.41,0.918,34.883,7.539c2.227,0.996,4.531,1.846,5.156,1.846c0.605,0,1.152,0.391,1.152,0.771
		c0,0.469,0.313,0.771,0.684,0.771c0.996,0,11.172,6.23,11.465,7.002c0.156,0.391,0.703,0.693,1.23,0.693
		c0.547,0,3.164,2.002,5.859,4.463c2.695,2.383,5.918,5.234,7.227,6.309c1.309,1.006,4.316,4.004,6.621,6.543
		c16.465,18.252,14.629,15.859,20.625,27.402c1.777,3.545,3.77,7.93,4.395,9.932c0.605,1.924,1.621,5,2.383,6.924
		c1.465,4.16,1.934,15.391,0.547,17.012c-0.469,0.615-0.996,1.924-1.152,2.998c-0.313,2.236-0.625,2.236,19.922,0.85
		c7.246-0.459,14.082-0.537,16.543-0.156c2.246,0.391,5.156,0.537,6.406,0.313c1.289-0.156,5.918,0.225,10.371,0.918
		c4.473,0.693,9.16,1.465,10.391,1.699c1.309,0.146,2.852,0.537,3.477,0.771c1.387,0.449-5.234,2.686-13.086,4.307
		c-3.164,0.693-8.164,1.768-11.152,2.461c-2.93,0.615-8.008,1.465-11.172,1.924c-3.145,0.391-7.617,1.074-9.844,1.465
		c-2.324,0.459-7.168,0.996-10.938,1.23s-7.773,0.771-8.848,1.152c-1.152,0.459-5.234,0.771-9.082,0.771
		c-3.926,0-10.859,0.537-15.547,1.23c-4.629,0.615-10.156,1.309-12.324,1.465c-2.07,0.156-6.465,0.85-9.609,1.465
		c-3.164,0.684-8.164,1.23-11.016,1.23c-2.91,0-6.465,0.537-8.008,1.152c-1.602,0.693-7.461,1.689-13.066,2.305
		c-5.625,0.547-10.547,1.24-11.016,1.543c-0.391,0.225-4.316,0.996-8.613,1.611c-7.93,1.152-15.781,2.617-23.711,4.541
		c-2.305,0.547-7.168,1.621-10.781,2.314s-7.695,1.611-9.082,2.002c-2.227,0.762-2.832,0.615-4.453-0.928
		c-2.461-2.305-2.539-7.998-0.156-12.773c1.777-3.545,1.914-3.613,13.32-8.77c5.605-2.461,11.465-3.545,35.859-6.621
		c3.086-0.391,3.613-0.693,4.395-2.852c1.074-2.852,4.063-4.844,8.379-5.537c2.539-0.391,3.613-0.156,5.469,1.221
		c1.23,0.928,2.695,2.539,3.164,3.623c0.449,1.006,1.152,1.699,1.445,1.465c0.625-0.381,13.945-1.309,34.805-2.393
		c4.004-0.225,8.535-0.605,10-0.84c3.066-0.459,10.781-4.16,10.781-5.156c0-0.381,0.684-1.621,1.602-2.695
		c1.23-1.621,1.465-2.695,1.074-5.547c-0.605-4.307-2.754-10.693-4.453-13.311c-0.703-1.152-1.309-2.305-1.309-2.617
		s-1.23-2.305-2.773-4.463c-1.465-2.08-4.238-6.23-6.152-9.16c-3.32-5-19.316-21.553-24.941-25.781
		c-1.465-1.084-3.008-2.383-3.457-2.93c-1.016-1.152-8.926-5.537-18.867-10.313c-13.086-6.387-25.469-8.008-32.012-4.15
		c-4.785,2.764-5.469,5.85-3.086,12.852c2.539,7.158,4.844,10.771,11.387,17.695c6.309,6.621,17.168,14.014,23.262,15.781
		c2.148,0.615,5,1.768,6.309,2.617c1.387,0.85,3.848,1.465,5.625,1.465c3.066,0,3.145-0.078,3.145-2.461
		c0.078-1.387,0.527-3.389,1.152-4.463c0.625-1.084,1.074-2.617,1.152-3.545c0-1.152,0.762-1.846,2.852-2.461
		c2.461-0.771,3.145-0.615,6.152,1.152c3.848,2.236,4.863,4.16,4.863,9.385c0,3.467-0.859,6.006-3.477,10.859
		c-1.602,3.076-7.773,6.074-12.305,6.152c-5.469,0-15.703-2.461-22.324-5.459c-9.941-4.385-12.637-5.693-15.625-7.695
		c-1.855-1.24-3.613-2.236-3.926-2.236s-2.324-1.621-4.473-3.691c-2.07-2.002-4.453-4.16-5.234-4.775
		c-1.309-1.074-1.387-1.074-0.527,0.537c0.527,0.928,0.918,1.855,0.918,2.08c0,0.928-5.078,6.074-6.543,6.621
		c-2.773,1.074-8.77-0.547-12.695-3.467c-1.992-1.465-4.004-2.695-4.395-2.695c-0.918,0-3.926-2.305-6.309-4.766
		c-2.305-2.461-3.145-2.695-3.145-0.771c0,1.846-7.012,10.469-8.789,10.771c-2.988,0.615-17.852-7.158-21.309-11.074
		c-0.703-0.85-2.461-3.701-3.848-6.475c-2.168-4.072-2.617-5.918-2.695-10c-0.078-5.313-0.781-8.467-1.855-8.467
		c-0.313,0-2.617-1.387-5.078-3.086c-15.156-10.381-26.406-17.314-27.012-16.621c-0.313,0.313-0.078,0.928,0.391,1.387
		c0.527,0.537,0.918,1.689,0.918,2.617c0,0.996,0.391,2.002,0.762,2.236c0.469,0.225,0.781,0.918,0.781,1.533
		c0,1.777,6.23,12.09,10.469,17.314c5.313,6.543,14.551,15.322,18.77,17.705c4.766,2.695,10.02,7.617,10.02,9.395
		c0,1.611-2.617,5.771-4.629,7.305c-3.164,2.539-9.316,0.234-19.785-7.617c-5.527-4.082-15.996-15.088-19.16-20.244
		c-1.23-1.914-3.008-4.453-4.004-5.615c-0.996-1.152-2.461-3.311-3.379-4.844c-0.859-1.543-3.008-3.623-4.785-4.619
		c-1.68-1.006-3.828-2.393-4.609-3.164c-1.465-1.299-2.773-1.846-2.773-0.996c0,0.156,1.23,2.236,2.695,4.541
		s4.238,7.461,6.152,11.387c1.855,4.004,4.316,8.623,5.469,10.234c1.699,2.471,2.09,4.014,2.09,7.393
		c0.078,4.775-2.617,11.475-4.551,11.475c-0.605,0-2.012,0.537-3.066,1.23c-2.09,1.387-8.867,1.152-11.563-0.381
		c-3.926-2.168-12.93-6.24-13.848-6.24c-0.605,0-1.465-0.85-1.855-1.846c-0.371-1.006-1.523-2.002-2.695-2.314
		c-1.992-0.537-8.457-6.455-9.922-9.238c-1.309-2.305-2.773-2.383-2.773-0.225c0,3.008-3.848,5.693-8.613,6.24
		c-9.395,1.074-19.785,1.074-22.695,0.078c-1.621-0.625-3.867-1.084-5.02-1.162c-1.914,0-2.148,0.234-2.148,2.617
		c0,2.236-0.625,3.154-3.613,5.771c-3.848,3.311-4.395,3.311-9.082,1.162c-3.691-1.777-12.695-17.168-12.695-21.709
		c0-0.547-0.469-1.465-0.938-2.002c-3.379-3.389-7.617-9.697-10.469-15.469c-1.074-2.236-2.461-3.545-5.234-4.932
		c-2.07-1.074-4.219-2.227-4.844-2.686c-0.527-0.469-1.387-0.85-1.914-0.928c-0.469-0.078-1.465-0.391-2.246-0.693
		c-1.309-0.537-1.23-0.381,0.156,2.002c0.781,1.465,1.699,3.457,2.012,4.541c0.293,1.074,1.074,2.539,1.68,3.232
		c0.703,0.771,1.016,1.846,0.781,2.539c-0.313,0.615-0.156,1.152,0.234,1.152c0.371,0,1.836,1.924,3.223,4.238
		c1.387,2.305,2.93,4.229,3.379,4.229c0.859,0,4.785,5.547,7.773,10.85c3.398,6.006,2.93,9.395-2.07,14.17
		c-1.914,1.846-3.008,2.227-5.547,2.227c-3.301-0.156-3.379-0.156-9.316-7.314c-3.066-3.691-5.449-7.002-6.543-9.082
		c-5.762-10.693-9.292-18.164-10.444-22.002c-1.172-3.857-2.324-5.479-6.543-9.629c-4.082-4.072-10.703-8.467-12.773-8.467
		c-0.781,0-0.391,4.473,0.684,7.393c1.074,3.076,5.938,13.311,7.617,16.084c0.469,0.84,1.699,2.773,2.617,4.307
		c0.996,1.465,1.777,3.154,1.777,3.701c0,0.537,0.605,1.924,1.387,2.998c0.762,1.162,1.992,3.623,2.773,5.547
		c0.762,1.914,1.758,4.229,2.227,5.156c0.605,1.309,0.449,2.461-0.625,4.844c-3.379,7.549-8.379,10.01-20.859,10.391
		c-4.844,0.078-9.082,0.391-9.297,0.693c-0.234,0.234,0.996,1.924,2.754,3.691c1.777,1.855,3.398,3.848,3.555,4.619
		c0.234,0.693,1.309,1.465,2.305,1.699c1.074,0.303,2.461,1.533,3.086,2.764c0.684,1.309,1.445,2.314,1.758,2.314
		s1.23,1.152,1.992,2.539c0.859,1.309,3.164,4.15,5.176,6.152c2.07,2.08,3.77,4.082,3.77,4.473c0,0.381,0.449,0.693,0.996,0.693
		c0.625,0,2.773,1.924,4.844,4.307c2.09,2.383,4.395,4.922,5.078,5.615c0.698,0.693,2.085,2.383,3.081,3.701
		c0.996,1.299,3.379,4.609,5.469,7.227c1.992,2.695,3.613,5.391,3.613,6.084c0,0.771,0.684,2.148,1.621,3.154
		c3.848,4.385,3.379,7.93-1.543,11.855c-3.477,2.773-5.547,3.232-8.711,2.002c-2.227-0.85-25.62-24.551-29.233-29.707
		c-0.313-0.391-1.543-1.934-2.695-3.389c-1.23-1.465-3.848-5.01-5.996-7.852c-6.777-9.092-13.008-17.236-13.477-17.627
		c-0.313-0.234-1.074-1.465-1.758-2.773c-0.703-1.309-1.777-2.607-2.402-2.842c-0.684-0.313-1.68-1.621-2.305-3.008
		c-0.527-1.387-1.777-3.232-2.617-4.15c-0.84-0.928-2.383-3.086-3.379-4.854c-3.398-6.152-4.082-7.393-7.085-11.777
		c-1.611-2.461-3.232-4.463-3.623-4.463c-0.381,0-0.684-0.537-0.684-1.152c0-1.465-2.539-6.465-3.232-6.543
		c-0.391,0-0.469,6.387-0.234,14.238c0.391,15.01,0,17.236-2.998,18.779c-0.85,0.459-2.461,1.465-3.545,2.314
		c-3.311,2.461-6.23,2.539-8.926,0.225c-1.387-1.152-5.078-4.307-8.311-7.08c-3.848-3.232-7.549-7.383-10.547-11.777
		c-9.082-13.311-11.934-23.32-9.473-33.32c0.391-1.465,0.156-1.543-4.082-1.24c-4.072,0.313-4.766,0.078-6.992-1.768
		c-1.387-1.152-3.389-3.691-4.541-5.693c-1.162-1.924-2.549-3.848-3.086-4.15c-1.387-0.85-4.072-6.24-4.072-8.086
		c0-0.85-0.547-2.773-1.152-4.229c-1.621-3.857-1.465-8.623,0.459-13.623c0.84-2.314,1.924-5.244,2.383-6.465
		c0.615-1.621,1.924-2.695,5-4.004c2.236-1.006,4.619-1.846,5.234-1.846s1.162-0.156,1.162-0.313c0-0.85-2.314-4.541-3.545-5.693
		c-0.85-0.693-2.695-3.232-4.238-5.547c-1.533-2.305-4.072-6.23-5.771-8.691c-1.611-2.461-4.15-6.24-5.537-8.467
		c-1.387-2.236-2.93-4.307-3.535-4.775c-0.547-0.381-1.543-2.002-2.314-3.53c-0.693-1.543-2.158-3.164-3.154-3.633
		c-1.074-0.527-1.924-1.23-1.924-1.68c0-0.938-1.152-2.461-3.232-4.473c-0.771-0.703-1.387-1.621-1.387-2.07
		c0-0.391-1.777-2.461-3.848-4.473c-2.158-2.07-3.848-4.082-3.848-4.453c0-0.391-0.537-0.703-1.152-0.703
		c-0.625,0-1.162-0.313-1.162-0.684c0-0.781-11.855-9.941-13.848-10.703c-0.625-0.234-1.699-1.074-2.314-1.777
		c-1.387-1.602-9.619-4.531-12.773-4.531c-3.77,0-5.771,3.066-7.617,11.914c-1.387,6.25-1.318,7.637,0.771,26.953
		c0.449,4.312,1.689,10.386,2.617,13.081c0.459,1.309,1.143,4.385,1.533,6.924c0.771,4.697,5.234,21.855,7.314,28.096
		c0.615,1.924,2.227,7.08,3.613,11.543c1.309,4.463,2.998,9.473,3.691,11.084c0.625,1.699,1.084,3.77,1.006,4.697
		c-0.156,0.84,0.313,2.773,0.84,4.229c0.625,1.465,1.396,4.619,1.699,6.934c0.693,5.381,1.611,7.695,2.93,7.695
		c0.537,0,2.383,1.455,4.082,3.311c1.689,1.768,6.152,5.996,9.922,9.385s7.305,6.699,7.852,7.314
		c0.615,0.615,4.541,4.766,8.77,9.238c4.16,4.385,7.627,8.311,7.627,8.691c0,0.313,3.994,4.697,8.926,9.619
		c4.854,4.932,9.307,9.551,9.854,10.166c0.615,0.605,3.838,4.229,7.305,7.998c3.389,3.779,6.24,7.236,6.24,7.773
		c0,0.469,0.918,1.387,1.992,1.934c1.084,0.605,2.539,2.148,3.164,3.457c1.152,2.158,3.848,5.234,15.156,17.314
		c2.617,2.773,6.006,6.777,7.617,9.004c1.621,2.236,4.004,5.156,5.4,6.621c1.377,1.387,3.535,4.082,4.766,5.928
		c1.309,1.851,3.545,4.775,5,6.543c1.465,1.768,4.937,6.006,7.69,9.316c2.773,3.311,5.703,6.689,6.621,7.539
		c0.859,0.923,3.555,4.082,5.938,7.153c2.461,3.003,7.07,8.389,10.234,11.934c5.605,6.235,8.008,10.083,8.008,13.008
		c0,2.08-4.473,5.85-7.48,6.313c-3.066,0.537-7.988-2.08-9.531-5.005c-0.996-2.002-2.852-4.233-9.082-11.313
		c-2.383-2.695-4.863-5.62-5.469-6.548c-0.605-0.996-2.305-2.925-3.613-4.385c-1.392-1.455-2.544-2.847-2.544-3.076
		c0-0.308-1.543-2.153-3.467-4.233c-1.846-2.08-3.848-4.619-4.385-5.693c-0.537-1.079-3.154-4.468-5.771-7.544
		c-2.617-3.159-5.303-6.851-5.996-8.315c-0.703-1.46-1.699-2.612-2.236-2.612c-1.006,0-7.08-6.548-8.467-9.155
		c-0.381-0.693-1.074-1.543-1.543-2.002c-0.537-0.391-1.924-2.158-3.154-3.848c-1.23-1.699-3.545-4.316-5-5.85
		c-3.311-3.389-5.234-5.625-7.695-9.16c-1.006-1.465-3.311-4.16-5.01-5.85c-4.766-4.854-13.467-14.629-13.467-15.244
		c0-0.918-9.238-11.699-11.543-13.389c-1.23-0.996-2.305-2.08-2.305-2.461c0-0.391-0.771-1.543-1.699-2.539
		c-0.996-1.006-2.695-2.852-3.77-4.082c-1.152-1.23-2.539-2.617-3.076-3.164c-1.162-0.996-14.932-15.615-21.25-22.471
		c-2.148-2.305-4.229-3.926-4.609-3.691c-0.469,0.313-1.084,3.389-1.387,6.846c-0.615,7.393-2.549,11.934-6.309,15.322l-2.705,2.383
		l1.934,3.926c1.074,2.236,2.686,5.547,3.535,7.471c0.85,1.914,2.461,5,3.613,6.924c1.162,1.924,3.086,6.084,4.316,9.229
		c1.23,3.164,2.617,6.475,3.076,7.314c2.314,4.014,14.092,28.33,18.545,38.101c5.088,11.313,6.162,13.545,7.09,14.624
		c0.537,0.62,1.23,2.002,1.455,3.081c0.615,2.075,2.695,6.846,5.547,12.388c0.996,2.007,1.846,4.16,1.846,4.854
		s0.918,2.69,2.002,4.463c1.152,1.772,3.076,5.923,4.238,9.233c1.221,3.311,2.539,6.621,2.92,7.31
		c2.695,5.239,9.307,19.248,9.307,19.702c0,0.317,0.625,1.313,1.465,2.163c0.771,0.84,2.393,3.843,3.545,6.689
		c1.23,2.856,2.773,5.85,3.535,6.699c2.383,2.539,5,6.079,6.006,7.925c0.771,1.465,0.771,2.31-0.313,4.39
		c-1.074,2.31-3.838,5.078-5,4.927C633.677,7831.652,632.681,7831.266,631.675,7830.88z M533.306,7635.309
		c-0.85-1.387-2.002-3.379-2.617-4.463c-0.615-0.996-2.383-3.691-4.004-5.928c-1.533-2.227-3.066-5.078-3.301-6.387
		c-0.313-1.23-0.771-2.305-1.084-2.305c-0.303,0-1.689-2.236-3.076-5.01c-1.387-2.764-2.852-5-3.154-5
		c-0.391,0-0.693-0.85-0.693-1.846c0-2.002-4.082-10.391-6.152-12.617c-0.771-0.771-2.314-3.086-3.467-5.244
		c-1.152-2.07-2.539-4.307-3.076-4.922c-1.318-1.533-5-8.926-5-10c0-1.006-8.32-9.238-9.316-9.238c-0.391,0-0.928-0.469-1.162-1.084
		c-0.225-0.605-1.23-1.309-2.227-1.533c-1.006-0.234-2.305-0.928-2.852-1.465c-1.377-1.309-8.926-6.24-12.158-7.852
		c-1.465-0.771-3.77-2.227-5.078-3.154c-1.309-0.996-2.617-1.846-2.93-1.846c-0.996,0-9.688-6.24-9.688-6.934
		c0-0.459-0.85-0.771-1.934-0.771c-1.768,0-5.459-1.689-14.473-6.846c-1.611-0.85-3.232-1.621-3.613-1.621
		c-0.84,0-0.225,3.623,0.771,5.01c0.303,0.459,1.387,3.008,2.314,5.771c1.992,5.625,10.078,21.475,14.16,27.939
		c1.455,2.305,3.613,5.85,4.766,7.93c5.625,10.156,28.555,35.781,38.027,42.48c11.611,8.232,13.389,9.316,21.934,13.633
		c7.236,3.613,13.623,5.605,17.93,5.684l2.617,0.078L533.306,7635.309z M658.843,7629.918c-0.234-7.695-1.689-23.545-2.314-24.619
		c-0.225-0.313-1.23-0.625-2.227-0.625c-1.006,0-2.08-0.303-2.305-0.771c-0.234-0.381-2.012-0.762-3.857-0.762
		c-3.076,0-3.457,0.234-3.926,2.002c-1.309,5.234,2.549,17.549,7.09,22.393c0.996,1.084,1.846,2.236,1.846,2.539
		c0,0.391,5.459,6.934,5.771,6.934C658.989,7637.008,658.921,7633.776,658.843,7629.918z M548.55,7630.231
		c0.85-5.693-0.537-20.703-2.08-23.086c-2.002-3.008-8.389-8.857-15.234-14.014c-2.002-1.455-4.697-3.848-6.006-5.156
		c-1.309-1.387-2.695-2.539-3.086-2.539c-1.064,0,0.313,4.082,2.236,6.621c2.617,3.457,5.459,8.77,11.24,21.084
		c0.918,1.924,2.461,4.775,3.379,6.318c1.006,1.611,1.777,3.232,1.777,3.613c0,0.459,0.84,2.002,1.924,3.535
		c1.006,1.621,2.461,4.16,3.232,5.85c0.693,1.621,1.465,2.773,1.689,2.617C547.778,7634.85,548.237,7632.692,548.55,7630.231z
		 M880.493,7627.301c-3.145-8.467-12.773-25.088-16.387-28.32c-0.918-0.85-2.383-2.695-3.223-4.082
		c-1.094-1.768-2.168-2.539-3.477-2.539c-1.777,0-1.855,0.234-1.777,4.473c0.078,5.615,0.859,8.154,5.098,16.924
		c2.832,5.781,4.453,8.008,8.457,11.699c4.316,3.926,9.238,6.699,12.305,6.855C882.114,7632.389,881.802,7630.69,880.493,7627.301z
		 M1003.188,7629.772c-1.016-1.387-3.398-4.932-5.313-7.852c-4.316-6.387-6.074-11.475-6.309-18.242
		c-0.234-4.619-1.309-7.471-2.93-7.471c-0.313,0-2.07-0.996-3.926-2.227c-1.855-1.152-4.531-2.617-6.074-3.076
		c-1.543-0.469-3.477-1.621-4.16-2.393c-1.543-1.768-5-2.08-5-0.537c0,1.768,3.145,10.703,5.156,14.707
		c3.691,7.305,17.012,21.777,23.848,25.859c2.48,1.455,4.629,2.92,4.707,3.232c0.156,0.381,0.605,0.615,0.996,0.615
		S1004.106,7631.237,1003.188,7629.772z M725.186,7630.846c1.309,0,1.855-0.459,1.855-1.543c0-1.533-5.156-12.383-7.637-16.162
		c-1.211-1.768-2.617-4.844-6.387-13.848c-2.832-6.699-3.223-7.236-6.387-8.164c-1.68-0.459-6.152-2.305-9.922-4.082
		c-4.004-1.836-8.008-3.154-9.629-3.154c-1.523,0-3.848-0.303-5.229-0.684c-2.07-0.615-2.461-0.469-2.842,0.918
		c-1.074,4.16-0.156,10.313,2.539,16.318c0.767,1.689,1.685,3.926,1.997,5c1.152,3.77,4.316,8.545,8.008,12.168
		c1.992,1.992,3.926,4.385,4.238,5.381c0.371,0.996,1.152,1.699,2.07,1.699c0.84,0,3.379,0.84,5.547,1.836
		c7.07,3.164,16.074,5.4,18.848,4.629C722.881,7631.002,724.189,7630.846,725.186,7630.846z M642.29,7591.208
		c2.314-0.615,5.01-1.152,6.006-1.152c1.006,0,1.768-0.313,1.768-0.771c0-0.693-5-8.154-6.152-9.229
		c-0.234-0.234-1.543-1.777-2.998-3.389c-4.395-5.156-13.086-11.162-17.939-12.314c-1.768-0.391-2.07-0.156-2.539,1.689
		c-0.85,4.004,1.074,12.549,4.004,17.852c1.543,2.773,3.232,5.244,3.77,5.625c1.611,0.918,4.16,5.615,4.16,7.539
		c0,1.689,0.234,1.621,2.92-1.387C637.446,7593.209,639.214,7592.135,642.29,7591.208z M842.017,7594.977
		c0.684-0.615,1.23-1.846,1.23-2.695c0-0.762,0.703-1.846,1.543-2.383s1.543-1.455,1.543-2.002c0-0.459,0.684-1.543,1.523-2.227
		c2.246-1.934,1.934-2.695-1.758-5.01c-3.848-2.383-10.313-5.996-10.781-5.996c-1.152,0,1.621,16.699,3.164,19.473
		C839.946,7596.52,840.396,7596.676,842.017,7594.977z"/>
	<path fill="#FFFFFF" d="M186.958,7760.07c-6.768-2.075-15.625-5.229-19.619-7.075c-3.926-1.929-8.545-3.853-10.244-4.39
		c-3.379-1.074-9.844-4.927-12.314-7.158c-0.84-0.767-4.463-2.925-8.076-4.697c-6.543-3.232-14.316-8.154-20.781-13.159
		c-1.924-1.465-4.463-3.232-5.693-3.926c-5.01-2.764-15.088-11.084-22.402-18.398c-18.467-18.623-25.088-25.859-29.551-32.471
		c-2.695-3.926-5.083-7.158-5.391-7.158c-0.229,0-1.079-1.152-1.846-2.539c-0.771-1.396-3.081-4.238-5.156-6.24
		c-3.003-2.92-3.848-4.307-3.848-6.162c0-1.689-1.157-4.072-3.696-7.617c-2.08-2.842-4.233-6.621-4.849-8.467
		c-0.537-1.768-1.387-3.613-1.846-4.15c-0.386-0.547-1.235-1.465-1.772-2.08c-0.459-0.615-0.923-1.846-0.923-2.617
		c0-0.85-0.537-1.924-1.152-2.461c-0.62-0.537-1.851-2.539-2.773-4.463c-0.85-2.002-1.768-3.77-2.153-4.004
		c-0.693-0.459-2.925-6.777-3.848-10.771c-0.386-1.465-1.694-4.932-3.003-7.705c-1.387-2.773-3.311-8.994-4.468-13.848
		c-1.616-7.314-1.919-10.313-1.689-16.934c0.308-7.773,0.386-8.311,3.462-13.936c4.39-8.154,5.078-9.16,6.157-9.16
		c0.537,0,1.001-0.303,1.001-0.771c0-0.381,1.309-2.07,3.003-3.76c2.231-2.236,3.77-3.086,6.543-3.467
		c1.924-0.313,3.54-0.85,3.54-1.162c0-0.381,1.616-0.918,3.54-1.221c6.543-0.928,7.158-2.09,3.618-5.781
		c-3.389-3.457-6.694-7.534-8.159-10.229c-1.46-2.695-6.079-9.395-8.774-12.852c-1.001-1.152-1.772-2.539-1.772-3.086
		c0-0.469-0.845-1.992-1.846-3.301c-1.001-1.387-2.075-3.32-2.388-4.395c-0.308-1.074-1.23-2.773-2.002-3.77
		c-0.845-0.996-1.46-2.383-1.46-3.086c0-0.762-0.308-1.602-0.693-1.992c-0.386-0.469-1.309-3.691-2.002-7.324
		c-0.61-3.613-1.616-7.832-2.075-9.375c-1.387-4.629-0.308-19.556,1.689-24.189c2.773-6.309,5.776-11.855,6.392-11.855
		c0.308,0,0.537-0.449,0.537-0.996c0-0.527,1.387-2.227,3.159-3.691c1.689-1.465,3.54-3.008,3.999-3.457
		c0.537-0.391,1.465-1.016,2.08-1.309c0.615-0.313,2.388-1.309,3.848-2.168c4.927-2.988,10.005-4.297,16.162-3.984
		c8.467,0.293,13.237,1.23,16.47,3.145c1.543,0.918,3.232,1.699,3.696,1.699s1.924,0.918,3.389,2.07
		c1.382,1.23,3.462,2.852,4.614,3.691c1.152,0.859,4.932,4.238,8.311,7.539c3.389,3.242,6.465,5.938,6.777,5.938
		c0.303,0,0.996,0.605,1.533,1.465c1.543,2.148,16.094,17.861,25.098,26.943c4.307,4.395,7.852,8.32,7.852,8.613
		c0,0.391,1.533,2.383,3.457,4.551c1.924,2.148,3.467,4.16,3.467,4.453c0,0.313,2.002,2.617,4.463,5.156s5.771,6.543,7.236,8.867
		c1.533,2.305,3.613,5.156,4.619,6.309c0.918,1.074,3.311,4.16,5.156,6.699c1.846,2.617,3.848,4.688,4.385,4.688
		s1.699,0.918,2.617,2.153c2.461,3.232,7.002,8.389,10.088,11.543c1.533,1.543,3.916,4.775,5.381,7.09
		c4.697,7.617,10.088,14.541,11.621,15.088c1.23,0.381,2.158-0.156,4.082-2.393c2.236-2.773,2.617-2.93,6.768-2.852
		c2.393,0,4.395-0.225,4.395-0.605c0-2.236,7.314-1.006,10.313,1.768c0.85,0.693,2.148,1.309,2.92,1.309s1.621,0.537,1.855,1.152
		c0.303,0.615,1.387,1.152,2.617,1.152s2.305,0.537,2.617,1.152c0.225,0.615,0.918,1.162,1.455,1.162
		c0.615,0,1.543,0.537,2.08,1.143c0.537,0.625,1.465,1.162,2.158,1.162c0.615,0,1.689,0.615,2.383,1.377
		c0.693,0.771,2.92,2.705,5,4.238c2.08,1.611,4.316,3.545,4.854,4.395c0.615,0.84,1.768,1.533,2.539,1.533
		c0.918,0,1.543,0.615,1.689,1.768c0.156,1.084,0.85,1.777,2.002,1.934c0.928,0.146,1.699,0.693,1.699,1.299
		c0,0.928,4.688,5.01,5.771,5.01c0.693,0,2.695,2.08,2.695,2.773c0,0.303,0.84,1.299,1.846,2.227
		c1.689,1.533,1.924,1.611,2.148,0.537c0.156-0.771-0.146-2.998-0.693-5.078c-0.537-2.08-0.762-4.004-0.615-4.385
		c0.234-0.313,0.078-0.771-0.303-1.006c-0.928-0.615-0.156-6.768,0.996-7.773c0.469-0.381,1.309-2.148,1.924-3.848
		c1.777-5,6.855-8.076,12.471-7.617c3.77,0.313,12.08,4.15,12.705,5.928c0.225,0.693,1.074,1.309,1.846,1.309
		c0.762,0,1.689,0.381,1.924,0.771c0.928,1.533,2.383,0.693,3.311-1.777c1.309-3.691,6.846-8.613,10.693-9.541
		c5.313-1.309,9.854,1.309,18.398,10.693c2.383,2.627,5.918,5.244,7.002,5.244c0.537,0,1.006,0.527,1.006,1.152
		c0,0.615,0.381,1.152,0.762,1.152c0.459,0,0.771,0.693,0.771,1.533c0,0.85,0.459,1.543,1.006,1.543c0.615,0,1.455,0.85,1.924,1.924
		c0.537,1.084,1.533,1.924,2.383,1.924s1.768,0.693,2.002,1.543c0.225,0.85,0.996,1.533,1.611,1.533
		c0.625,0,1.074,0.469,1.074,1.006s1.24,2.08,2.705,3.389l2.695,2.383l1.143-4.307c0.703-2.471,1.543-5.703,2.012-7.236
		c0.459-1.777,2.148-4.316,4.229-6.387c3.232-3.164,3.926-3.467,7.314-3.467c2.002,0,3.926,0.381,4.15,0.771
		c0.234,0.459,1.465,0.771,2.695,0.771c3.232,0,5.537,1.074,8.623,4.072l2.764,2.695l0.547-2.461
		c0.303-1.309,0.459-3.613,0.459-5.078c-0.078-3.232,1.846-8.389,3.623-9.775c1.768-1.309,4.766-1.23,4.766,0.078
		c0,0.537,1.162,1.924,2.539,2.998c1.846,1.387,3.389,3.926,5.547,8.926c1.689,3.848,3.457,7.012,3.926,7.012
		c0.918,0,4.922,6.387,4.922,7.842c0,0.625,1.465,2.773,4.844,7.168c1.318,1.768,4.551,6.455,7.393,10.771
		c1.689,2.539,4.854,7.236,7.002,10.391c10.547,15.469,11.396,17.314,10.166,21.396c-1.309,4.385-4.932,7.852-8.086,7.852
		c-2.383,0-5.918-2.461-5.918-4.16c0-0.537-3.164-4.922-5.234-7.383c-1.162-1.318-3.623-5.01-10.703-16.631
		c-3.154-5.078-6.621-9.385-10.01-12.617c-7.383-6.777-8.467-7.695-9.307-7.695c-0.391,0-1.543-0.625-2.539-1.396
		c-1.006-0.762-3.389-2.305-5.313-3.311c-1.924-0.996-3.623-2.07-3.848-2.305c-1.006-1.23-11.621-5.078-12.012-4.385
		c-0.996,1.611,1.543,10.547,4.922,17.168c3.467,6.846,7.783,13.076,13.477,19.473c2.695,3.076,2.92,3.613,2.461,6.387
		c-0.693,4.15-1.924,6.309-4.844,8.77c-3.701,3.086-6.543,2.236-10.938-3.154c-1.924-2.383-5.459-6.387-7.852-9.004
		c-2.461-2.617-4.463-5-4.463-5.234c0-0.313-2.236-2.852-5-5.771c-2.695-2.93-5-5.771-5-6.309c0-0.625-1.23-2.158-2.695-3.467
		s-2.695-2.617-2.695-2.93c0-0.527-5.771-6.309-15.01-14.922c-2.08-1.934-5.078-4.395-6.689-5.391
		c-1.543-1.006-3.008-2.236-3.311-2.695c-0.693-1.074-5.078-3.311-5.547-2.773c-0.225,0.234,0.469,1.465,1.621,2.773
		c1.074,1.387,2.383,4.004,2.842,5.85c0.537,1.924,1.309,3.389,1.924,3.389s1.084,0.303,1.084,0.771
		c0,0.693,1.309,2.305,13.545,16.387c7.383,8.623,8.008,9.629,8.008,13.389c0,3.008-0.469,3.779-3.857,7.236
		c-2.07,2.158-3.848,4.541-3.848,5.313c0,1.846-4.15,6.621-7.002,8.164c-2.773,1.387-9.238,1.387-11.162-0.078
		c-0.762-0.615-1.924-1.152-2.461-1.152c-0.615,0-2.002-0.615-3.076-1.465c-1.152-0.771-3.77-2.002-5.85-2.695
		c-5.615-1.924-6.543-2.539-12.783-8.545c-8.926-8.691-13.848-13.008-13.848-12.08c0,0.459,0.303,1.074,0.771,1.309
		c0.459,0.234,0.615,4.15,0.459,9.463c-0.234,8.701-0.313,9.16-2.695,12.705c-3.076,4.541-8.926,8.535-15.088,10.459
		c-3.916,1.24-5.771,1.309-11.924,0.771c-4.004-0.303-7.549-0.381-7.852-0.078c-0.234,0.313,0.156,1.768,0.918,3.232
		c1.465,2.695,1.855,3.545,3.164,6.777c0.615,1.689,0.918,1.689,13.926,1.768c31.328,0.156,49.795,0,54.492-0.459
		c5.615-0.615,8.701,0.234,10.01,2.695c0.693,1.309,0.459,1.924-1.768,4.229c-1.465,1.465-3.164,2.695-3.857,2.695
		s-1.465,0.391-1.689,0.771c-0.225,0.459-1.152,0.771-1.924,0.771s-1.533,0.303-1.689,0.693c-0.234,0.693-5.85,1.543-20.244,3.232
		c-3.389,0.381-13.857,0.693-23.32,0.615c-9.473-0.078-17.393,0.078-17.627,0.303c-0.234,0.234,0.156,2.08,0.771,4.16
		c2.002,6.006,3.691,20.088,3.311,27.168c-0.771,15.547-8.701,41.719-14.863,49.028c-0.762,0.923-2.227,2.925-3.301,4.39
		c-1.084,1.538-2.549,2.764-3.311,2.764c-0.771,0-1.543,0.542-1.777,1.157c-0.303,0.615-0.918,1.157-1.455,1.157
		c-0.547,0-1.152,0.229-1.309,0.61c-0.078,0.308-1.777,1.621-3.691,2.925c-4.004,2.7-11.934,4.316-18.164,3.618
		c-2.549-0.229-4.16-0.073-4.473,0.464C201.812,7764.386,200.581,7764.152,186.958,7760.07z M219.673,7747.755
		c2.461-1.382,4.922-2.925,5.615-3.457c0.615-0.62,1.465-1.079,1.846-1.079c2.002,0,6.162-7.622,8.779-16.162
		c1.309-4.463,2.998-9.775,3.691-11.855c0.928-2.695,1.23-6.318,1.152-12.695c-0.225-18.242-2.227-26.406-13.691-56.035
		c-1.162-2.93-2.93-6.768-4.004-8.701c-1.084-1.924-2.393-4.385-3.008-5.537c-1.23-2.461-5.537-4.229-6.543-2.764
		c-0.381,0.527-0.918,1.377-1.23,1.768c-1.309,1.846-6.387,3.457-9.385,2.998c-2.695-0.459-3.77-1.309-9.004-7.773
		c-3.311-4.004-6.777-8.164-7.695-9.16c-1.006-1.074-1.777-2.158-1.777-2.539c0-0.303-0.615-1.23-1.387-2.08
		c-0.762-0.771-4.072-5.537-7.383-10.469c-6.543-9.854-14.775-18.545-22.783-24.17c-8.389-5.85-19.092-11.855-21.016-11.855
		c-0.996,0-2.461-0.527-3.311-1.143c-0.762-0.625-2.764-1.162-4.385-1.162c-2.92,0-2.998,0-2.461,2.539
		c0.313,1.309,1.006,2.852,1.621,3.311c0.615,0.469,1.299,1.924,1.533,3.311c0.313,1.309,0.85,2.383,1.23,2.383
		c1.152,0,14.473,13.779,14.473,15.01c0,0.625,0.537,1.162,1.152,1.162s1.152,0.459,1.152,0.996s0.693,1.387,1.543,1.924
		s1.543,1.465,1.543,2.08s0.771,1.533,1.768,2.002c0.918,0.537,3.545,2.617,5.771,4.697c2.305,2.002,4.463,3.691,4.844,3.691
		c0.391,0,0.693,0.537,0.693,1.152s0.313,1.152,0.693,1.152c0.391,0,0.928,0.693,1.24,1.465c0.225,0.84,1.846,2.998,3.535,4.844
		c4.619,5.01,5.771,6.475,6.309,7.852c0.313,0.693,0.85,1.24,1.309,1.24c0.391,0,0.771,0.459,0.771,0.996
		c0,0.615,0.693,1.689,1.543,2.461c2.92,2.617,6.152,8.311,6.152,10.703c0,1.611-0.84,3.311-2.617,5.156
		c-2.383,2.539-3.076,2.842-8.076,3.311c-5.469,0.537-5.615,0.537-9.697-2.236c-5-3.311-5.771-4.082-16.709-17.314
		c-15.313-18.633-29.854-39.873-29.854-43.799c0-0.928-0.313-1.611-0.703-1.611c-0.381,0-1.152-0.928-1.689-2.08
		c-3.389-6.699-5.537-9.463-7.305-9.463c-1.006,0-1.855-0.313-1.855-0.771c0-0.391-0.303-0.771-0.693-0.771
		c-1.152,0-7.773-4.619-7.773-5.469c0-0.381-0.615-0.684-1.387-0.684c-0.762,0-2.227-0.85-3.154-1.855
		c-0.996-1.074-3.691-2.842-5.928-3.916c-2.227-1.084-4.307-2.314-4.541-2.705c-0.225-0.381-1.689-1.074-3.223-1.611
		c-1.621-0.537-3.389-1.387-3.931-2.002c-2.231-2.148-3.311-0.85-1.309,1.768c1.46,1.934,1.46,3.311,0,3.857
		c-1.079,0.459-1.694-0.078-8.003-7.393c-3.848-4.385-8.701-7.158-14.78-8.389c-5.386-1.152-12.314-1.23-14.238-0.303
		c-0.767,0.449-2.695,0.996-4.155,1.299c-5.156,0.928-8.545,9.395-8.467,21.25c0,10.391,1.387,18.467,3.081,18.467
		c0.308,0,1.152,2.617,1.919,5.771c0.693,3.154,1.543,5.928,2.002,6.162c0.386,0.303,0.698,1.299,0.698,2.305
		s0.308,2.002,0.688,2.305c0.386,0.234,1.001,1.543,1.23,2.93c0.308,1.309,2.388,5.771,4.541,9.775
		c4.697,8.545,5.078,9.238,7.471,13.857c0.918,1.914,2.227,3.926,2.769,4.453c0.537,0.547,1.001,1.699,1.001,2.549
		c0,1.768,3.54,5.615,4.619,4.922c0.386-0.225,1.616,0.918,2.612,2.617c1.079,1.689,2.539,3.467,3.311,4.082
		c0.771,0.537,2.617,2.539,4.082,4.463c2.461,3.232,12.388,14.473,18.237,20.781c1.387,1.465,5.313,5.928,8.701,9.854
		c5.537,6.23,17.393,17.002,28.32,25.703c2.002,1.621,5.771,4.004,8.467,5.313c2.695,1.387,6.465,3.926,8.467,5.693
		c3.623,3.232,17.705,13.394,24.551,17.705c2.002,1.304,6.309,3.232,9.551,4.307c3.145,1.157,6.846,2.539,8.076,3.232
		c3.848,1.924,15.088,5.776,20.625,7.08c2.93,0.615,5.693,1.543,6.162,1.851C204.507,7751.681,214.058,7750.836,219.673,7747.755z
		 M257.388,7622.614c0.537-0.537,1.689-1.006,2.461-1.006c1.309,0,1.543-0.381,3.076-5c1.084-3.154-1.152-12.08-4.082-16.387
		c-1.23-1.777-1.992-3.779-1.768-4.395c0.234-0.615,0-0.928-0.615-0.693c-0.459,0.156-2.08-1.309-3.535-3.311
		c-1.465-2.002-3.154-4.229-3.848-4.844c-0.625-0.693-1.855-2.08-2.773-3.164c-0.85-0.996-2.852-2.92-4.307-4.15
		c-1.465-1.309-2.852-2.695-3.008-3.076c-0.537-1.387-11.924-10.244-16.543-12.939c-2.471-1.533-5.928-3.76-7.549-5.078
		c-1.689-1.299-3.77-2.539-4.619-2.764c-7.92-1.621-9.229-1.768-10.615-0.928c-2.461,1.621-1.387,5.234,4.385,14.619
		c1.924,3.008,3.467,5.781,3.467,6.084c0,0.313,1.768,2.852,3.848,5.693c2.148,2.852,3.848,5.469,3.848,5.771
		c0,0.391,0.771,0.85,1.768,1.084c1.152,0.313,2.158,1.455,2.773,3.154c0.537,1.465,1.465,2.617,2.08,2.617s1.074,0.537,1.074,1.152
		s0.381,1.152,0.771,1.152c1.152,0,0.918,2.002-0.391,3.086c-1.074,0.85-1.074,1.152-0.068,2.695
		c0.615,0.996,1.924,3.926,2.764,6.621c0.928,2.686,1.924,5.078,2.158,5.303c0.303,0.234,1.074,1.387,1.689,2.617
		c1.846,3.701,5.547,5.234,15.322,6.621C254.233,7624.459,255.61,7624.381,257.388,7622.614z M320.649,7613.063
		c0-3.311-3.076-9.082-7.852-14.932c-5.537-6.689-10.078-12.617-11.084-14.316c-0.459-0.771-0.996-1.299-1.23-1.074
		c-0.225,0.234-2.158-1.152-4.307-3.076c-2.08-1.924-4.15-3.467-4.541-3.467c-0.381,0-1.387-0.615-2.227-1.299
		c-0.771-0.771-2.852-2.158-4.551-3.086c-1.689-0.85-5.078-2.695-7.461-4.004c-2.461-1.309-4.541-2.07-4.775-1.689
		c-0.459,0.693,1.621,7.002,2.93,8.545c0.459,0.615,1.387,2.148,2.002,3.301c0.615,1.162,2.148,3.232,3.467,4.629
		c1.299,1.377,3.301,4.072,4.453,5.918c1.084,1.924,3.545,5.234,5.469,7.314c1.924,2.158,3.467,4.082,3.545,4.463
		c0,0.303,0.459,0.537,0.996,0.537s2.393,1.162,4.082,2.549c5.693,4.766,10.693,8.076,15.313,10c2.539,1.152,4.854,2.002,5.234,2.08
		C320.425,7615.456,320.649,7614.381,320.649,7613.063z M203.511,7602.448c-0.537-0.85-1.621-1.699-2.393-1.924
		c-1.23-0.303-1.377-0.85-0.996-3.086c0.313-1.455,0.156-2.842-0.234-3.076c-0.84-0.537-3.154-4.922-3.154-5.996
		c0-0.391-0.537-1.24-1.152-1.855c-0.615-0.684-1.152-1.846-1.152-2.617s-1.006-2.148-2.305-3.076
		c-1.24-0.918-2.314-2.158-2.314-2.773c0-0.605-0.303-1.074-0.771-1.074c-0.381,0-0.762-0.459-0.762-0.918
		c0-0.547-1.475-2.539-3.32-4.463c-1.768-1.934-4.072-4.775-5.146-6.396c-1.084-1.543-2.158-2.842-2.471-2.842
		c-0.381,0-0.615-0.469-0.615-1.006c0-0.615-0.771-1.689-1.611-2.539c-0.928-0.771-2.852-3.154-4.238-5.313
		c-6.465-9.775-9.541-13.545-14.854-18.545c-3.076-2.92-7.617-7.93-9.932-11.084c-2.383-3.154-5.918-7.695-7.842-10.073
		c-1.924-2.402-4.932-6.406-6.699-8.867c-1.777-2.539-4.775-6.152-6.543-8.066c-5.01-5.391-14.629-15.938-16.621-18.242
		c-13.086-15.02-33.721-35.889-41.338-41.885c-4.233-3.242-8.232-6.465-8.926-7.012c-4.312-3.691-16.934-5.391-22.168-2.91
		c-7.847,3.691-13.159,13.008-13.159,23.252c0,7.383,3.926,24.395,6.851,29.629c0.459,0.84,2.539,5.234,4.692,9.844
		c2.158,4.551,4.39,8.77,5.005,9.395c0.537,0.625,1.465,2.383,2.002,3.926c0.537,1.621,1.538,3.77,2.231,4.844
		c4.233,6.309,5.386,8.315,5.386,9.399c0,0.693,0.386,1.533,0.85,1.846c0.459,0.225,1.689,2.383,2.695,4.688
		c2.305,5.166,3.384,6.24,6.387,6.855c1.309,0.303,2.383,0.771,2.383,1.152c0,0.313,1.309,0.85,2.852,1.152
		c3.926,0.771,10.078,3.926,11.006,5.693c0.459,0.85,1.465,1.543,2.227,1.543c2.002,0,6.006,2.158,6.543,3.467
		c0.234,0.615,1.084,1.152,1.846,1.152c0.85,0,2.852,1.006,4.541,2.227c1.699,1.24,3.779,2.471,4.697,2.695
		c0.928,0.313,1.699,0.928,1.699,1.309c0,0.391,0.459,0.693,1.074,0.693s1.768,0.85,2.617,1.924c0.84,1.074,2.002,1.924,2.617,1.924
		s2.227,1.24,3.535,2.773l2.471,2.695l2.305-1.309c1.23-0.771,2.314-2.002,2.314-2.695c0-2.393,6.23-4.619,14.844-5.381
		c4.316-0.391,8.857-0.469,10.01-0.234c2.852,0.615,15.625,6.611,19.092,9.004c1.533,0.996,3.994,2.08,5.537,2.383
		c1.621,0.313,2.852,0.85,2.852,1.23c0,0.391,1.611,2.383,3.535,4.395c1.924,2.07,4.619,5.156,5.928,7.002
		c1.309,1.768,2.617,3.232,2.998,3.232c0.391,0,1.006,0.84,1.396,1.924c0.381,1.074,1.074,1.924,1.533,1.924
		c0.381,0,0.771,0.459,0.771,1.074s0.693,1.309,1.543,1.621c0.84,0.225,2.148,1.455,2.998,2.617c0.85,1.152,2.773,2.764,4.229,3.535
		c1.543,0.85,2.773,1.846,2.773,2.236c0,1.152,3.232,4.307,4.385,4.307c0.537,0,1.006,0.537,1.006,1.152c0,1.465,3.076,5,4.385,5
		C204.282,7603.903,204.282,7603.6,203.511,7602.448z"/>
	<path fill="#FFFFFF" d="M417.632,7358.839c0-1.992,1.23-2.773,4.688-2.773h2.236v-29.629v-29.628h2.305
		c2.08,0,2.314,0.234,2.314,2.227c0,2.461,1.152,3.77,1.768,2.07c0.85-2.227,7.012-4.297,12.549-4.297
		c4.463,0,5.928,0.313,8.467,1.992c5.85,3.77,8.311,9.629,8.311,19.941c0,8.535-1.621,14.316-5.313,18.632
		c-3.389,3.906-6.699,5.078-13.467,4.688c-4.619-0.234-5.693-0.625-8.389-2.773l-3.154-2.539v12.012v11.914h-6.152
		C417.788,7360.675,417.632,7360.597,417.632,7358.839z M449.653,7334.445c3.613-3.535,5.156-8.926,4.766-17.089
		c-0.303-7.383-2.08-11.543-6.006-14.16c-4.844-3.379-12.773-1.777-16.621,3.242c-1.777,2.305-1.846,2.988-1.846,12.695
		c0,9.375,0.146,10.527,1.689,12.773C436.021,7338.214,444.487,7339.445,449.653,7334.445z"/>
	<path fill="#FFFFFF" d="M512.446,7358.605c0.244-1.836,0.615-2.148,3.154-2.383l2.861-0.234v-9.688v-9.629l-2.705,2.305
		c-3.066,2.773-6.309,3.555-12.617,3.086c-5.85-0.391-9.16-2.852-12.158-8.848c-1.846-3.926-2.158-5.547-2.393-12.929
		c-0.225-7.168-0.068-9.16,1.396-12.852c1.914-5.156,6.299-9.551,10.381-10.313c5.078-0.938,11.553,0,14.854,2.148
		c3.311,2.227,4.004,2.07,4.004-0.703c0-1.68,0.234-1.758,5.771-1.758h5.771v2.227c0,1.992-0.303,2.227-3.457,2.695l-3.467,0.547
		v29.238v29.16h-5.85h-5.771L512.446,7358.605z M512.3,7336.125c1.465-0.762,3.457-2.539,4.463-3.926
		c1.533-2.305,1.699-3.379,1.699-13.144v-10.625l-2.314-2.695c-2.852-3.242-6.699-4.629-11.24-4.082
		c-4.619,0.469-7.08,2.305-9.004,6.543c-4.385,10-1.074,25.781,5.928,28.632C504.604,7337.98,509.526,7337.667,512.3,7336.125z"/>
	<path fill="#FFFFFF" d="M672.388,7358.449c0-2.305,1.387-3.145,5.234-3.145h1.689v-26.484v-26.464l-1.689-0.469
		c-1.006-0.234-2.539-0.469-3.467-0.469c-1.465,0-1.768-0.449-1.768-2.305v-2.305h9.619h9.624v2.305
		c0,1.855-0.313,2.305-1.699,2.305c-0.996,0-2.539,0.234-3.457,0.469l-1.777,0.469v29.16v29.16h-6.157h-6.152V7358.449z"/>
	<path fill="#FFFFFF" d="M388.306,7340.675c-4.004-2.07-8.232-7.383-9.541-11.855c-0.615-2.07-1.152-6.308-1.152-9.316
		c0-7.227,1.611-12.383,5.156-16.465c3.848-4.551,7.764-6.23,14.463-6.23s10.078,0.918,13.389,3.613l2.539,2.148l-1.533,1.934
		c-1.543,1.855-1.621,1.855-3.076,0.449c-3.701-3.223-11.777-4.453-16.621-2.461c-3.242,1.406-6.475,5.469-7.861,10.156
		c-2.07,6.934-3.076,6.484,14.316,6.484h15.4v4.921c0,8.32-3.008,14.082-8.779,16.699
		C400.698,7342.746,392.075,7342.667,388.306,7340.675z M402.231,7336.125c3.008-1.602,6.162-6.836,6.162-10.234v-2.148h-12.314
		c-13.701,0-13.389-0.156-11.162,5.156C388.149,7336.515,395.62,7339.679,402.231,7336.125z"/>
	<path fill="#FFFFFF" d="M548.394,7340.675c-4.004-2.07-8.232-7.383-9.541-11.855c-1.465-4.922-1.465-13.691,0-18.71
		c1.465-4.844,6.23-10.371,10.547-12.07c3.613-1.465,11.309-1.777,15.771-0.547c1.611,0.469,4.082,1.777,5.547,2.93l2.539,2.148
		l-1.543,1.934c-1.543,1.855-1.621,1.855-3.076,0.449c-3.691-3.223-11.777-4.453-16.621-2.461
		c-3.232,1.406-6.465,5.469-7.861,10.156c-2.07,6.934-3.076,6.484,14.316,6.484h15.4v4.921c0,8.32-3.008,14.082-8.779,16.699
		C560.786,7342.746,552.163,7342.667,548.394,7340.675z M562.329,7336.125c2.998-1.602,6.152-6.836,6.152-10.234v-2.148h-12.314
		c-13.701,0-13.389-0.156-11.162,5.156C548.237,7336.515,555.708,7339.679,562.329,7336.125z"/>
	<path fill="#FFFFFF" d="M639.214,7340.675c-4.004-2.07-8.232-7.383-9.541-11.855c-1.465-4.922-1.465-13.691,0-18.71
		c1.465-4.844,6.23-10.371,10.547-12.07c3.613-1.465,11.309-1.777,15.771-0.547c1.621,0.469,4.082,1.777,5.547,2.93l2.539,2.148
		l-1.543,1.934c-1.533,1.855-1.611,1.855-3.076,0.449c-3.701-3.223-11.777-4.453-16.621-2.461
		c-3.232,1.406-6.475,5.469-7.852,10.156c-2.08,6.934-3.076,6.484,14.316,6.484h15.391v4.921c0,8.32-3.008,14.082-8.779,16.699
		C651.606,7342.746,642.983,7342.667,639.214,7340.675z M653.149,7336.125c2.998-1.602,6.152-6.836,6.152-10.234v-2.148h-12.314
		c-13.701,0-13.389-0.156-11.162,5.156C639.058,7336.515,646.528,7339.679,653.149,7336.125z"/>
	<path fill="#FFFFFF" d="M708.564,7340.753c-7.168-3.848-10.156-9.316-10.625-19.316c-0.391-8.398,0.469-12.168,3.691-17.012
		c3.32-5.078,8.477-7.695,15.234-7.695c6.777,0,10.938,1.621,14.785,6.074c3.77,4.238,5.391,9.316,5.391,16.777
		c0,10-4.238,18.007-11.094,21.171C721.65,7342.667,712.256,7342.667,708.564,7340.753z M724.951,7335.05
		c7.324-5.547,8.691-20,2.773-28.242c-2.93-4.004-6.699-5.703-11.699-5.156c-8.32,0.762-13.477,8.77-12.695,19.785
		c0.547,7.382,4.004,13.242,9.082,15.312C715.791,7338.214,721.943,7337.375,724.951,7335.05z"/>
	<path fill="#FFFFFF" d="M761.665,7341.359c-1.074-0.371-3.086-1.836-4.395-3.223l-2.539-2.383v2.852v2.832h-5.757
		c-5.547,0-5.781-0.078-5.781-1.836c0-1.543,0.469-1.934,3.477-2.305l3.452-0.547v-25.625v-25.703l-3.452-0.469
		c-3.008-0.469-3.477-0.781-3.477-2.461v-1.855h9.233h9.238v1.855c0,1.543-0.469,1.914-3.086,2.383l-3.066,0.547v8.066
		c0,7.773,0.059,8.086,1.387,6.934c3.691-3.379,12.988-4.844,18.242-2.852c3.066,1.152,6.309,4.316,8.301,8.086
		c1.465,2.695,1.699,4.316,1.699,13.086c0,9.16-0.156,10.39-2.012,14.316c-1.23,2.617-3.223,5.234-5,6.543
		c-2.539,1.914-3.613,2.227-8.691,2.383C766.216,7342.14,762.739,7341.828,761.665,7341.359z M773.286,7335.832
		c1.465-0.918,3.457-3.398,4.551-5.547c1.68-3.32,1.914-4.844,1.914-11.542c0-7.012-0.234-8.008-2.07-11.23
		c-4.395-7.48-14.395-8.242-20.098-1.543c-2.07,2.461-2.07,2.695-2.07,13.535c0,10.859,0,11.093,2.07,13.554
		C761.587,7337.746,768.521,7339.054,773.286,7335.832z"/>
	<path fill="#FFFFFF" d="M803.911,7340.675c-4.004-2.07-8.223-7.383-9.531-11.855c-1.465-4.922-1.465-13.691,0-18.71
		c1.465-4.844,6.23-10.371,10.547-12.07c3.613-1.465,11.309-1.777,15.762-0.547c1.621,0.469,4.082,1.777,5.547,2.93l2.539,2.148
		l-1.543,1.934c-1.523,1.855-1.602,1.855-3.066,0.449c-3.691-3.223-11.777-4.453-16.641-2.461
		c-3.223,1.406-6.465,5.469-7.832,10.156c-2.09,6.934-3.086,6.484,14.316,6.484h15.391v4.921c0,8.32-3.008,14.082-8.77,16.699
		C816.313,7342.746,807.681,7342.667,803.911,7340.675z M817.856,7336.125c2.988-1.602,6.152-6.836,6.152-10.234v-2.148h-12.324
		c-13.691,0-13.379-0.156-11.152,5.156C803.774,7336.515,811.235,7339.679,817.856,7336.125z"/>
	<path fill="#FFFFFF" d="M855.181,7341.066c-1.23-0.703-3.086-2.168-4.004-3.32c-1.699-1.992-1.777-1.992-1.777-0.371
		c0,3.691-0.605,4.063-6.621,4.063c-5.449,0-5.684-0.078-5.684-1.836c0-1.543,0.449-1.934,3.457-2.305l3.477-0.547v-17.246v-17.227
		l-3.477-0.547c-3.145-0.469-3.457-0.703-3.457-2.695v-2.227h9.609h9.629v2.227c0,1.992-0.313,2.227-3.457,2.695l-3.477,0.547
		v12.773c0,14.003,0.547,16.308,4.785,19.863c1.836,1.523,3.145,1.914,6.465,1.914c2.773,0,4.141,0.313,4.141,0.996
		c0,0.469,0.234,1.699,0.469,2.695c0.469,1.621,0.234,1.699-3.613,1.699C859.341,7342.218,856.489,7341.671,855.181,7341.066z"/>
	<path fill="#FFFFFF" d="M306.03,7339.679c0-1.309,0.615-1.934,2.461-2.461c2.383-0.781,2.461-0.938,7.314-17.714
		c2.686-9.316,5.234-18.242,5.693-19.844c0.693-2.695,0.996-2.93,3.232-2.695l2.383,0.234l4.854,15
		c2.695,8.242,5.078,16.171,5.313,17.539c0.459,2.461,1.846,3.477,1.846,1.387c0-0.605,2.461-8.613,5.459-17.773l5.391-16.621
		l2.393,0.234l2.383,0.234l5.771,19.844c5.693,19.394,5.85,19.863,7.998,20.332c1.621,0.293,2.158,0.84,2.158,2.227
		c0,1.836-0.078,1.836-7.695,1.836c-7.627,0-7.695,0-7.695-1.836c0-1.465,0.537-2.012,2.305-2.383
		c1.309-0.313,2.314-0.938,2.314-1.387c0-0.781-6.543-25.781-7.393-28.261c-0.225-0.605-1.533,2.48-2.92,6.934
		c-1.387,4.473-3.848,12.324-5.469,17.539l-3.008,9.473l-2.686-0.234l-2.695-0.215l-3.691-11.934
		c-2.08-6.542-4.619-14.628-5.547-18.007l-1.768-6.016l-0.537,3.242c-0.313,1.758-2.08,8.77-3.926,15.468
		c-1.924,6.699-3.467,12.383-3.467,12.539c0,0.234,1.23,0.625,2.695,0.938c2.158,0.371,2.695,0.84,2.695,2.305
		c0,1.836-0.078,1.836-8.086,1.836C306.187,7341.437,306.03,7341.437,306.03,7339.679z"/>
	<path fill="#FFFFFF" d="M580.024,7339.601c0-1.465,0.547-2.012,2.236-2.383c2.08-0.469,2.617-1.543,9.854-20.253
		c7.539-19.316,7.773-19.766,10-20l2.236-0.234l7.695,19.863c7.461,19.238,7.773,19.843,10.156,20.625
		c1.846,0.527,2.461,1.152,2.461,2.461c0,1.758-0.146,1.758-8.076,1.758s-8.076,0-8.076-1.758c0-1.387,0.615-2.012,2.607-2.539
		l2.617-0.703l-5.85-15.761c-3.232-8.633-6.074-15.02-6.23-14.238c-0.156,0.84-2.617,7.754-5.537,15.449
		c-2.93,7.695-5.313,14.179-5.313,14.394c0,0.234,1.074,0.625,2.305,0.938c1.777,0.371,2.305,0.918,2.305,2.383
		c0,1.836-0.068,1.836-7.695,1.836C580.103,7341.437,580.024,7341.437,580.024,7339.601z"/>
	<path fill="#FFFFFF" d="M258.315,7322.59v-2.695h10h10.01v2.695v2.695h-10.01h-10V7322.59z"/>
	<path fill="#FFFFFF" d="M894.048,7322.59v-2.695h10h10v2.695v2.695h-10h-10V7322.59z"/>
</g>
</svg>
